%TF.GenerationSoftware,KiCad,Pcbnew,9.0.7*%
%TF.CreationDate,2026-06-05T14:00:45-05:00*%
%TF.ProjectId,heliov1,68656c69-6f76-4312-9e6b-696361645f70,rev?*%
%TF.SameCoordinates,Original*%
%TF.FileFunction,Legend,Top*%
%TF.FilePolarity,Positive*%
%FSLAX46Y46*%
G04 Gerber Fmt 4.6, Leading zero omitted, Abs format (unit mm)*
G04 Created by KiCad (PCBNEW 9.0.7) date 2026-06-05 14:00:45*
%MOMM*%
%LPD*%
G01*
G04 APERTURE LIST*
%ADD10C,0.100000*%
%ADD11C,0.200000*%
%ADD12C,0.150000*%
%ADD13C,0.120000*%
G04 APERTURE END LIST*
D10*
G36*
X84444575Y-80510000D02*
G01*
X84566208Y-80510000D01*
X84566208Y-80920327D01*
X84941243Y-80920327D01*
X84941243Y-80510000D01*
X85062815Y-80510000D01*
X85062815Y-81400997D01*
X84941243Y-81400997D01*
X84941243Y-81025840D01*
X84566208Y-81025840D01*
X84566208Y-81400997D01*
X84444575Y-81400997D01*
X84444575Y-80510000D01*
G37*
G36*
X84038955Y-80504668D02*
G01*
X84106116Y-80522212D01*
X84164593Y-80551993D01*
X84210285Y-80591638D01*
X84245162Y-80641416D01*
X84270369Y-80703073D01*
X84284735Y-80771606D01*
X84289848Y-80852550D01*
X84284559Y-80923605D01*
X84269026Y-80989631D01*
X84243152Y-81050852D01*
X84208270Y-81103143D01*
X84163906Y-81146883D01*
X84110207Y-81180751D01*
X84070570Y-81196479D01*
X84026872Y-81206165D01*
X83978377Y-81209511D01*
X83909282Y-81203585D01*
X83851310Y-81186857D01*
X83799948Y-81159300D01*
X83758070Y-81122805D01*
X83725133Y-81077537D01*
X83700673Y-81022055D01*
X83686264Y-80960648D01*
X83682417Y-80906650D01*
X83804842Y-80906650D01*
X83806102Y-80951496D01*
X83813696Y-80990792D01*
X83827832Y-81026651D01*
X83847524Y-81056371D01*
X83873079Y-81080715D01*
X83904616Y-81099296D01*
X83940564Y-81110702D01*
X83983811Y-81114745D01*
X84021463Y-81110872D01*
X84054886Y-81099602D01*
X84084690Y-81081463D01*
X84110207Y-81057042D01*
X84130888Y-81027358D01*
X84147759Y-80991097D01*
X84159245Y-80951401D01*
X84165528Y-80906650D01*
X83804842Y-80906650D01*
X83682417Y-80906650D01*
X83681194Y-80889492D01*
X83681866Y-80846994D01*
X83683942Y-80814815D01*
X84165528Y-80814815D01*
X84161398Y-80762486D01*
X84149837Y-80719160D01*
X84131607Y-80683184D01*
X84106788Y-80653309D01*
X84075980Y-80629733D01*
X84038459Y-80612202D01*
X83992838Y-80600981D01*
X83937344Y-80596950D01*
X83877260Y-80599453D01*
X83819192Y-80606353D01*
X83765580Y-80616184D01*
X83718075Y-80628213D01*
X83718075Y-80530516D01*
X83768274Y-80517836D01*
X83827740Y-80507252D01*
X83889512Y-80500553D01*
X83954441Y-80498276D01*
X84038955Y-80504668D01*
G37*
G36*
X83257983Y-81377550D02*
G01*
X83460887Y-81377550D01*
X83460887Y-81475247D01*
X83137754Y-81475247D01*
X83137754Y-80608674D01*
X82933506Y-80608674D01*
X82933506Y-80510000D01*
X83483419Y-80510000D01*
X83483419Y-80608674D01*
X83257983Y-80608674D01*
X83257983Y-81377550D01*
G37*
G36*
X82489106Y-81099113D02*
G01*
X82692011Y-81099113D01*
X82692011Y-81197787D01*
X82368878Y-81197787D01*
X82368878Y-80608674D01*
X82164629Y-80608674D01*
X82164629Y-80510000D01*
X82714542Y-80510000D01*
X82714542Y-80608674D01*
X82489106Y-80608674D01*
X82489106Y-81099113D01*
G37*
G36*
X82447402Y-81486971D02*
G01*
X82410582Y-81479766D01*
X82380845Y-81459616D01*
X82361062Y-81429818D01*
X82353857Y-81393182D01*
X82361062Y-81356851D01*
X82380845Y-81326748D01*
X82410582Y-81306536D01*
X82447402Y-81299392D01*
X82484343Y-81306536D01*
X82514019Y-81326748D01*
X82533864Y-81356851D01*
X82541008Y-81393182D01*
X82533864Y-81429818D01*
X82514019Y-81459616D01*
X82484343Y-81479766D01*
X82447402Y-81486971D01*
G37*
G36*
X81756679Y-80504235D02*
G01*
X81817621Y-80521174D01*
X81871810Y-80549625D01*
X81916662Y-80588524D01*
X81951973Y-80637335D01*
X81978822Y-80698616D01*
X81994646Y-80767212D01*
X82000315Y-80849802D01*
X81994489Y-80927537D01*
X81977784Y-80995799D01*
X81949893Y-81057820D01*
X81912876Y-81109310D01*
X81866148Y-81151391D01*
X81809745Y-81183194D01*
X81746145Y-81202680D01*
X81671747Y-81209511D01*
X81600440Y-81203551D01*
X81539551Y-81186613D01*
X81485299Y-81158217D01*
X81440510Y-81119569D01*
X81405187Y-81071045D01*
X81378351Y-81009781D01*
X81362469Y-80941320D01*
X81356796Y-80859389D01*
X81357215Y-80853771D01*
X81478368Y-80853771D01*
X81482111Y-80915058D01*
X81492412Y-80964719D01*
X81509863Y-81009224D01*
X81532346Y-81043975D01*
X81561167Y-81071885D01*
X81595544Y-81091847D01*
X81634299Y-81103771D01*
X81678525Y-81107906D01*
X81729182Y-81102407D01*
X81769750Y-81087023D01*
X81804320Y-81062627D01*
X81831910Y-81031336D01*
X81852668Y-80994266D01*
X81867447Y-80950430D01*
X81875830Y-80903587D01*
X81878682Y-80853771D01*
X81874962Y-80792377D01*
X81864699Y-80742336D01*
X81847233Y-80697567D01*
X81824766Y-80662773D01*
X81795959Y-80634886D01*
X81761873Y-80614963D01*
X81723341Y-80603064D01*
X81678525Y-80598904D01*
X81627918Y-80604386D01*
X81587362Y-80619726D01*
X81552785Y-80644158D01*
X81525202Y-80675413D01*
X81504441Y-80712534D01*
X81489664Y-80756379D01*
X81481246Y-80803317D01*
X81478368Y-80853771D01*
X81357215Y-80853771D01*
X81362610Y-80781513D01*
X81379328Y-80712660D01*
X81407218Y-80650062D01*
X81444235Y-80598415D01*
X81490969Y-80556388D01*
X81547428Y-80524593D01*
X81610975Y-80505109D01*
X81685364Y-80498276D01*
X81756679Y-80504235D01*
G37*
G36*
X81249207Y-81197787D02*
G01*
X81113897Y-81197787D01*
X80945858Y-80742885D01*
X80909649Y-80631938D01*
X80872096Y-80745633D01*
X80705401Y-81197787D01*
X80574975Y-81197787D01*
X80844069Y-80510000D01*
X80980723Y-80510000D01*
X81249207Y-81197787D01*
G37*
G36*
X79844322Y-80510000D02*
G01*
X80405165Y-80510000D01*
X80405165Y-80620397D01*
X80175638Y-80620397D01*
X80175638Y-81273991D01*
X80389472Y-81158709D01*
X80433192Y-81260314D01*
X80149015Y-81408813D01*
X80043808Y-81408813D01*
X80043808Y-80620397D01*
X79844322Y-80620397D01*
X79844322Y-80510000D01*
G37*
G36*
X78879685Y-81400997D02*
G01*
X78628298Y-81400997D01*
X78562973Y-81397282D01*
X78501292Y-81386343D01*
X78443493Y-81366922D01*
X78394375Y-81339021D01*
X78353085Y-81301753D01*
X78320919Y-81254574D01*
X78306187Y-81219093D01*
X78296867Y-81177515D01*
X78293564Y-81128667D01*
X78294115Y-81122805D01*
X78419959Y-81122805D01*
X78426694Y-81177198D01*
X78445559Y-81219975D01*
X78476318Y-81253902D01*
X78516335Y-81278078D01*
X78567785Y-81293687D01*
X78633794Y-81299392D01*
X78758113Y-81299392D01*
X78758113Y-80934005D01*
X78644724Y-80934005D01*
X78574117Y-80939945D01*
X78519868Y-80956077D01*
X78478394Y-80980839D01*
X78453585Y-81006290D01*
X78435512Y-81037532D01*
X78424065Y-81075791D01*
X78419959Y-81122805D01*
X78294115Y-81122805D01*
X78298630Y-81074775D01*
X78314080Y-81020711D01*
X78340028Y-80970394D01*
X78377644Y-80925090D01*
X78425408Y-80887646D01*
X78487614Y-80856641D01*
X78532973Y-80842591D01*
X78585856Y-80833627D01*
X78647471Y-80830446D01*
X78758113Y-80830446D01*
X78758113Y-80510000D01*
X78879685Y-80510000D01*
X78879685Y-81400997D01*
G37*
G36*
X77620369Y-80510000D02*
G01*
X77620369Y-81003981D01*
X77622751Y-81056676D01*
X77630261Y-81089221D01*
X77643267Y-81106013D01*
X77662684Y-81110837D01*
X77675780Y-81108797D01*
X77687963Y-81102594D01*
X77712937Y-81075910D01*
X77742307Y-81026878D01*
X77780226Y-80951896D01*
X77780226Y-80510000D01*
X77888792Y-80510000D01*
X77888792Y-80990914D01*
X77891234Y-81051913D01*
X77898745Y-81088244D01*
X77912056Y-81106013D01*
X77931840Y-81110837D01*
X77955104Y-81103998D01*
X77979345Y-81079330D01*
X78009082Y-81030664D01*
X78047977Y-80951896D01*
X78047977Y-80510000D01*
X78157276Y-80510000D01*
X78157276Y-81197787D01*
X78066418Y-81197787D01*
X78060983Y-81066934D01*
X78026484Y-81133124D01*
X78008875Y-81158547D01*
X77991985Y-81177088D01*
X77973336Y-81191773D01*
X77954066Y-81201634D01*
X77933157Y-81207479D01*
X77909308Y-81209511D01*
X77874164Y-81205163D01*
X77846778Y-81193028D01*
X77825289Y-81173302D01*
X77810429Y-81147515D01*
X77800394Y-81111326D01*
X77796590Y-81061439D01*
X77764534Y-81124515D01*
X77730706Y-81170921D01*
X77711432Y-81187648D01*
X77690711Y-81199619D01*
X77667708Y-81206926D01*
X77640153Y-81209511D01*
X77602351Y-81204471D01*
X77572300Y-81190212D01*
X77548079Y-81166526D01*
X77529063Y-81131294D01*
X77516043Y-81080843D01*
X77511071Y-81010331D01*
X77511071Y-80510000D01*
X77620369Y-80510000D01*
G37*
G36*
X77143420Y-80504235D02*
G01*
X77204363Y-80521174D01*
X77258551Y-80549625D01*
X77303403Y-80588524D01*
X77338714Y-80637335D01*
X77365563Y-80698616D01*
X77381387Y-80767212D01*
X77387056Y-80849802D01*
X77381230Y-80927537D01*
X77364525Y-80995799D01*
X77336634Y-81057820D01*
X77299617Y-81109310D01*
X77252889Y-81151391D01*
X77196486Y-81183194D01*
X77132886Y-81202680D01*
X77058489Y-81209511D01*
X76987182Y-81203551D01*
X76926292Y-81186613D01*
X76872040Y-81158217D01*
X76827252Y-81119569D01*
X76791928Y-81071045D01*
X76765092Y-81009781D01*
X76749211Y-80941320D01*
X76743537Y-80859389D01*
X76743956Y-80853771D01*
X76865109Y-80853771D01*
X76868852Y-80915058D01*
X76879153Y-80964719D01*
X76896604Y-81009224D01*
X76919087Y-81043975D01*
X76947909Y-81071885D01*
X76982285Y-81091847D01*
X77021040Y-81103771D01*
X77065266Y-81107906D01*
X77115923Y-81102407D01*
X77156491Y-81087023D01*
X77191061Y-81062627D01*
X77218651Y-81031336D01*
X77239409Y-80994266D01*
X77254188Y-80950430D01*
X77262571Y-80903587D01*
X77265423Y-80853771D01*
X77261704Y-80792377D01*
X77251440Y-80742336D01*
X77233974Y-80697567D01*
X77211507Y-80662773D01*
X77182700Y-80634886D01*
X77148614Y-80614963D01*
X77110082Y-80603064D01*
X77065266Y-80598904D01*
X77014659Y-80604386D01*
X76974103Y-80619726D01*
X76939526Y-80644158D01*
X76911943Y-80675413D01*
X76891182Y-80712534D01*
X76876405Y-80756379D01*
X76867987Y-80803317D01*
X76865109Y-80853771D01*
X76743956Y-80853771D01*
X76749351Y-80781513D01*
X76766069Y-80712660D01*
X76793959Y-80650062D01*
X76830976Y-80598415D01*
X76877710Y-80556388D01*
X76934169Y-80524593D01*
X76997716Y-80505109D01*
X77072105Y-80498276D01*
X77143420Y-80504235D01*
G37*
G36*
X76424953Y-80504644D02*
G01*
X76472306Y-80522883D01*
X76513079Y-80552361D01*
X76546800Y-80592309D01*
X76572300Y-80640400D01*
X76591557Y-80700081D01*
X76602660Y-80764939D01*
X76606578Y-80839605D01*
X76600298Y-80924200D01*
X76582642Y-80995249D01*
X76553198Y-81058838D01*
X76514682Y-81110165D01*
X76466368Y-81151263D01*
X76408803Y-81181301D01*
X76344576Y-81199327D01*
X76271111Y-81205603D01*
X76206569Y-81201512D01*
X76144104Y-81188506D01*
X76144104Y-81475247D01*
X76024547Y-81475247D01*
X76024547Y-80759982D01*
X76144104Y-80759982D01*
X76144104Y-81078902D01*
X76174564Y-81090801D01*
X76209012Y-81099724D01*
X76279354Y-81106929D01*
X76326974Y-81102658D01*
X76367189Y-81090548D01*
X76401420Y-81071084D01*
X76430662Y-81043975D01*
X76452623Y-81011515D01*
X76469588Y-80969450D01*
X76480814Y-80915505D01*
X76484945Y-80846933D01*
X76480019Y-80763968D01*
X76467119Y-80703778D01*
X76448431Y-80661125D01*
X76419990Y-80626506D01*
X76386129Y-80606669D01*
X76344933Y-80599881D01*
X76316081Y-80603864D01*
X76284663Y-80616646D01*
X76249617Y-80640242D01*
X76200985Y-80687157D01*
X76144104Y-80759982D01*
X76024547Y-80759982D01*
X76024547Y-80510000D01*
X76131098Y-80510000D01*
X76135189Y-80640547D01*
X76170986Y-80594554D01*
X76206923Y-80559252D01*
X76243145Y-80533142D01*
X76283037Y-80513726D01*
X76324704Y-80502168D01*
X76368808Y-80498276D01*
X76424953Y-80504644D01*
G37*
G36*
X75867072Y-81197787D02*
G01*
X75731761Y-81197787D01*
X75563722Y-80742885D01*
X75527513Y-80631938D01*
X75489961Y-80745633D01*
X75323265Y-81197787D01*
X75192840Y-81197787D01*
X75461934Y-80510000D01*
X75598588Y-80510000D01*
X75867072Y-81197787D01*
G37*
G36*
X74454677Y-80510000D02*
G01*
X75042813Y-80510000D01*
X75042813Y-80616489D01*
X74811943Y-80846566D01*
X74719741Y-80943775D01*
X74686959Y-80984661D01*
X74664420Y-81018696D01*
X74647414Y-81052634D01*
X74637737Y-81082688D01*
X74630898Y-81147718D01*
X74633156Y-81179951D01*
X74639813Y-81210244D01*
X74651172Y-81238433D01*
X74667107Y-81262573D01*
X74687998Y-81282543D01*
X74714917Y-81298110D01*
X74746105Y-81307658D01*
X74785320Y-81311116D01*
X74839886Y-81304747D01*
X74888452Y-81286081D01*
X74932745Y-81257596D01*
X74973815Y-81221235D01*
X75039394Y-81299515D01*
X74985035Y-81347355D01*
X74922951Y-81384633D01*
X74877939Y-81402015D01*
X74827147Y-81412847D01*
X74769567Y-81416629D01*
X74711903Y-81412023D01*
X74661306Y-81398799D01*
X74615477Y-81376895D01*
X74576981Y-81347508D01*
X74545692Y-81310563D01*
X74521965Y-81265382D01*
X74507542Y-81214727D01*
X74502487Y-81155839D01*
X74506002Y-81105718D01*
X74516165Y-81060706D01*
X74533041Y-81017631D01*
X74557503Y-80973450D01*
X74587849Y-80930365D01*
X74627173Y-80883386D01*
X74726580Y-80781414D01*
X74888452Y-80623328D01*
X74454677Y-80623328D01*
X74454677Y-80510000D01*
G37*
G36*
X73262588Y-81099113D02*
G01*
X73465493Y-81099113D01*
X73465493Y-81197787D01*
X73142360Y-81197787D01*
X73142360Y-80608674D01*
X72938112Y-80608674D01*
X72938112Y-80510000D01*
X73488024Y-80510000D01*
X73488024Y-80608674D01*
X73262588Y-80608674D01*
X73262588Y-81099113D01*
G37*
G36*
X73220884Y-81486971D02*
G01*
X73184064Y-81479766D01*
X73154328Y-81459616D01*
X73134544Y-81429818D01*
X73127339Y-81393182D01*
X73134544Y-81356851D01*
X73154328Y-81326748D01*
X73184064Y-81306536D01*
X73220884Y-81299392D01*
X73257826Y-81306536D01*
X73287501Y-81326748D01*
X73307346Y-81356851D01*
X73314490Y-81393182D01*
X73307346Y-81429818D01*
X73287501Y-81459616D01*
X73257826Y-81479766D01*
X73220884Y-81486971D01*
G37*
G36*
X72727330Y-81197787D02*
G01*
X72621451Y-81197787D01*
X72616688Y-81086840D01*
X72558619Y-81145764D01*
X72503604Y-81183560D01*
X72476144Y-81195855D01*
X72448649Y-81203710D01*
X72390580Y-81209511D01*
X72338048Y-81205109D01*
X72294961Y-81192813D01*
X72259504Y-81173408D01*
X72230357Y-81146863D01*
X72208140Y-81114500D01*
X72191194Y-81073618D01*
X72180114Y-81022322D01*
X72176074Y-80958307D01*
X72176074Y-80510000D01*
X72294898Y-80510000D01*
X72294898Y-80948782D01*
X72298894Y-81002054D01*
X72309429Y-81040695D01*
X72325001Y-81068217D01*
X72347599Y-81089270D01*
X72376722Y-81102258D01*
X72414455Y-81106929D01*
X72457198Y-81100396D01*
X72477777Y-81091858D01*
X72500551Y-81077803D01*
X72549399Y-81034328D01*
X72608445Y-80965940D01*
X72608445Y-80510000D01*
X72727330Y-80510000D01*
X72727330Y-81197787D01*
G37*
G36*
X71405793Y-80519769D02*
G01*
X71489141Y-80506275D01*
X71576580Y-80502184D01*
X71642024Y-80506514D01*
X71694418Y-80518397D01*
X71736170Y-80536617D01*
X71769226Y-80560619D01*
X71795670Y-80591694D01*
X71815394Y-80630685D01*
X71828117Y-80679355D01*
X71832730Y-80740015D01*
X71832730Y-81098136D01*
X72024704Y-81098136D01*
X72024704Y-81197787D01*
X71832730Y-81197787D01*
X71832730Y-81385976D01*
X71713905Y-81416629D01*
X71713905Y-81197787D01*
X71405793Y-81197787D01*
X71405793Y-81098136D01*
X71713905Y-81098136D01*
X71713905Y-80749724D01*
X71708978Y-80702094D01*
X71695577Y-80666234D01*
X71674643Y-80639326D01*
X71646240Y-80619975D01*
X71608559Y-80607437D01*
X71558811Y-80602812D01*
X71487126Y-80607513D01*
X71405793Y-80622351D01*
X71405793Y-80519769D01*
G37*
G36*
X70968055Y-80504668D02*
G01*
X71035216Y-80522212D01*
X71093693Y-80551993D01*
X71139385Y-80591638D01*
X71174262Y-80641416D01*
X71199469Y-80703073D01*
X71213835Y-80771606D01*
X71218947Y-80852550D01*
X71213659Y-80923605D01*
X71198126Y-80989631D01*
X71172252Y-81050852D01*
X71137370Y-81103143D01*
X71093005Y-81146883D01*
X71039307Y-81180751D01*
X70999670Y-81196479D01*
X70955972Y-81206165D01*
X70907477Y-81209511D01*
X70838382Y-81203585D01*
X70780409Y-81186857D01*
X70729048Y-81159300D01*
X70687170Y-81122805D01*
X70654233Y-81077537D01*
X70629773Y-81022055D01*
X70615364Y-80960648D01*
X70611517Y-80906650D01*
X70733942Y-80906650D01*
X70735202Y-80951496D01*
X70742796Y-80990792D01*
X70756932Y-81026651D01*
X70776624Y-81056371D01*
X70802178Y-81080715D01*
X70833715Y-81099296D01*
X70869664Y-81110702D01*
X70912911Y-81114745D01*
X70950562Y-81110872D01*
X70983986Y-81099602D01*
X71013790Y-81081463D01*
X71039307Y-81057042D01*
X71059988Y-81027358D01*
X71076859Y-80991097D01*
X71088345Y-80951401D01*
X71094628Y-80906650D01*
X70733942Y-80906650D01*
X70611517Y-80906650D01*
X70610294Y-80889492D01*
X70610966Y-80846994D01*
X70613042Y-80814815D01*
X71094628Y-80814815D01*
X71090498Y-80762486D01*
X71078937Y-80719160D01*
X71060707Y-80683184D01*
X71035887Y-80653309D01*
X71005080Y-80629733D01*
X70967559Y-80612202D01*
X70921938Y-80600981D01*
X70866444Y-80596950D01*
X70806360Y-80599453D01*
X70748291Y-80606353D01*
X70694680Y-80616184D01*
X70647175Y-80628213D01*
X70647175Y-80530516D01*
X70697374Y-80517836D01*
X70756840Y-80507252D01*
X70818612Y-80500553D01*
X70883541Y-80498276D01*
X70968055Y-80504668D01*
G37*
G36*
X70392674Y-81197787D02*
G01*
X70284047Y-81197787D01*
X70280688Y-81071331D01*
X70237889Y-81117827D01*
X70198050Y-81152369D01*
X70160765Y-81176844D01*
X70120394Y-81195305D01*
X70080846Y-81206003D01*
X70041575Y-81209511D01*
X69989169Y-81204757D01*
X69945882Y-81191398D01*
X69909909Y-81170099D01*
X69880008Y-81140573D01*
X69857773Y-81105235D01*
X69841291Y-81060791D01*
X69831297Y-81005190D01*
X69829144Y-80935959D01*
X69949373Y-80935959D01*
X69952013Y-80995781D01*
X69961431Y-81037743D01*
X69975690Y-81066385D01*
X69997281Y-81088748D01*
X70024349Y-81102180D01*
X70058672Y-81106929D01*
X70082422Y-81104830D01*
X70106788Y-81098381D01*
X70130699Y-81087698D01*
X70156674Y-81071147D01*
X70211018Y-81023154D01*
X70272445Y-80952384D01*
X70272445Y-80510000D01*
X70392674Y-80510000D01*
X70392674Y-81197787D01*
G37*
G36*
X69162728Y-80510000D02*
G01*
X69162728Y-81003981D01*
X69165109Y-81056676D01*
X69172620Y-81089221D01*
X69185626Y-81106013D01*
X69205043Y-81110837D01*
X69218139Y-81108797D01*
X69230322Y-81102594D01*
X69255296Y-81075910D01*
X69284666Y-81026878D01*
X69322585Y-80951896D01*
X69322585Y-80510000D01*
X69431151Y-80510000D01*
X69431151Y-80990914D01*
X69433593Y-81051913D01*
X69441104Y-81088244D01*
X69454415Y-81106013D01*
X69474199Y-81110837D01*
X69497463Y-81103998D01*
X69521704Y-81079330D01*
X69551440Y-81030664D01*
X69590336Y-80951896D01*
X69590336Y-80510000D01*
X69699635Y-80510000D01*
X69699635Y-81197787D01*
X69608776Y-81197787D01*
X69603342Y-81066934D01*
X69568843Y-81133124D01*
X69551233Y-81158547D01*
X69534343Y-81177088D01*
X69515695Y-81191773D01*
X69496425Y-81201634D01*
X69475516Y-81207479D01*
X69451667Y-81209511D01*
X69416522Y-81205163D01*
X69389136Y-81193028D01*
X69367648Y-81173302D01*
X69352788Y-81147515D01*
X69342753Y-81111326D01*
X69338949Y-81061439D01*
X69306892Y-81124515D01*
X69273065Y-81170921D01*
X69253790Y-81187648D01*
X69233070Y-81199619D01*
X69210067Y-81206926D01*
X69182512Y-81209511D01*
X69144710Y-81204471D01*
X69114658Y-81190212D01*
X69090437Y-81166526D01*
X69071422Y-81131294D01*
X69058401Y-81080843D01*
X69053429Y-81010331D01*
X69053429Y-80510000D01*
X69162728Y-80510000D01*
G37*
G36*
X68661426Y-80504668D02*
G01*
X68728586Y-80522212D01*
X68787064Y-80551993D01*
X68832756Y-80591638D01*
X68867632Y-80641416D01*
X68892840Y-80703073D01*
X68907205Y-80771606D01*
X68912318Y-80852550D01*
X68907029Y-80923605D01*
X68891496Y-80989631D01*
X68865623Y-81050852D01*
X68830741Y-81103143D01*
X68786376Y-81146883D01*
X68732677Y-81180751D01*
X68693040Y-81196479D01*
X68649343Y-81206165D01*
X68600847Y-81209511D01*
X68531753Y-81203585D01*
X68473780Y-81186857D01*
X68422418Y-81159300D01*
X68380540Y-81122805D01*
X68347603Y-81077537D01*
X68323143Y-81022055D01*
X68308735Y-80960648D01*
X68304888Y-80906650D01*
X68427313Y-80906650D01*
X68428573Y-80951496D01*
X68436166Y-80990792D01*
X68450302Y-81026651D01*
X68469994Y-81056371D01*
X68495549Y-81080715D01*
X68527086Y-81099296D01*
X68563035Y-81110702D01*
X68606282Y-81114745D01*
X68643933Y-81110872D01*
X68677356Y-81099602D01*
X68707161Y-81081463D01*
X68732677Y-81057042D01*
X68753358Y-81027358D01*
X68770230Y-80991097D01*
X68781715Y-80951401D01*
X68787998Y-80906650D01*
X68427313Y-80906650D01*
X68304888Y-80906650D01*
X68303665Y-80889492D01*
X68304336Y-80846994D01*
X68306412Y-80814815D01*
X68787998Y-80814815D01*
X68783869Y-80762486D01*
X68772308Y-80719160D01*
X68754078Y-80683184D01*
X68729258Y-80653309D01*
X68698450Y-80629733D01*
X68660930Y-80612202D01*
X68615308Y-80600981D01*
X68559814Y-80596950D01*
X68499731Y-80599453D01*
X68441662Y-80606353D01*
X68388051Y-80616184D01*
X68340545Y-80628213D01*
X68340545Y-80530516D01*
X68390745Y-80517836D01*
X68450210Y-80507252D01*
X68511982Y-80500553D01*
X68576911Y-80498276D01*
X68661426Y-80504668D01*
G37*
G36*
X67967311Y-80504644D02*
G01*
X68014664Y-80522883D01*
X68055437Y-80552361D01*
X68089158Y-80592309D01*
X68114659Y-80640400D01*
X68133916Y-80700081D01*
X68145018Y-80764939D01*
X68148937Y-80839605D01*
X68142656Y-80924200D01*
X68125001Y-80995249D01*
X68095557Y-81058838D01*
X68057040Y-81110165D01*
X68008727Y-81151263D01*
X67951161Y-81181301D01*
X67886935Y-81199327D01*
X67813469Y-81205603D01*
X67748928Y-81201512D01*
X67686463Y-81188506D01*
X67686463Y-81475247D01*
X67566906Y-81475247D01*
X67566906Y-80759982D01*
X67686463Y-80759982D01*
X67686463Y-81078902D01*
X67716923Y-81090801D01*
X67751371Y-81099724D01*
X67821713Y-81106929D01*
X67869333Y-81102658D01*
X67909548Y-81090548D01*
X67943779Y-81071084D01*
X67973021Y-81043975D01*
X67994982Y-81011515D01*
X68011947Y-80969450D01*
X68023172Y-80915505D01*
X68027304Y-80846933D01*
X68022377Y-80763968D01*
X68009478Y-80703778D01*
X67990790Y-80661125D01*
X67962349Y-80626506D01*
X67928488Y-80606669D01*
X67887292Y-80599881D01*
X67858440Y-80603864D01*
X67827022Y-80616646D01*
X67791976Y-80640242D01*
X67743344Y-80687157D01*
X67686463Y-80759982D01*
X67566906Y-80759982D01*
X67566906Y-80510000D01*
X67673457Y-80510000D01*
X67677548Y-80640547D01*
X67713345Y-80594554D01*
X67749282Y-80559252D01*
X67785504Y-80533142D01*
X67825396Y-80513726D01*
X67867063Y-80502168D01*
X67911166Y-80498276D01*
X67967311Y-80504644D01*
G37*
G36*
X67111576Y-81099113D02*
G01*
X67314481Y-81099113D01*
X67314481Y-81197787D01*
X66991348Y-81197787D01*
X66991348Y-80608674D01*
X66787100Y-80608674D01*
X66787100Y-80510000D01*
X67337013Y-80510000D01*
X67337013Y-80608674D01*
X67111576Y-80608674D01*
X67111576Y-81099113D01*
G37*
G36*
X67069872Y-81486971D02*
G01*
X67033052Y-81479766D01*
X67003316Y-81459616D01*
X66983532Y-81429818D01*
X66976327Y-81393182D01*
X66983532Y-81356851D01*
X67003316Y-81326748D01*
X67033052Y-81306536D01*
X67069872Y-81299392D01*
X67106814Y-81306536D01*
X67136489Y-81326748D01*
X67156334Y-81356851D01*
X67163478Y-81393182D01*
X67156334Y-81429818D01*
X67136489Y-81459616D01*
X67106814Y-81479766D01*
X67069872Y-81486971D01*
G37*
G36*
X66429728Y-80502311D02*
G01*
X66473858Y-80513297D01*
X66512530Y-80531544D01*
X66542491Y-80554574D01*
X66565894Y-80583184D01*
X66582119Y-80616367D01*
X66591520Y-80652971D01*
X66594759Y-80693609D01*
X66589698Y-80743574D01*
X66575215Y-80786215D01*
X66551565Y-80823055D01*
X66517944Y-80855054D01*
X66478711Y-80878837D01*
X66429306Y-80897119D01*
X66367534Y-80909114D01*
X66290798Y-80913489D01*
X66148710Y-80913489D01*
X66148710Y-80973756D01*
X66153291Y-81012656D01*
X66166305Y-81044634D01*
X66187667Y-81071270D01*
X66215880Y-81090539D01*
X66254404Y-81103187D01*
X66306491Y-81107906D01*
X66364153Y-81104591D01*
X66420919Y-81094656D01*
X66477365Y-81078945D01*
X66537362Y-81057103D01*
X66537362Y-81164570D01*
X66487170Y-81181057D01*
X66428796Y-81195467D01*
X66364560Y-81205664D01*
X66296904Y-81209511D01*
X66236507Y-81205928D01*
X66184919Y-81195833D01*
X66138089Y-81178160D01*
X66100533Y-81154068D01*
X66070176Y-81122562D01*
X66047594Y-81083543D01*
X66034020Y-81038719D01*
X66029153Y-80983647D01*
X66029153Y-80700875D01*
X66148710Y-80700875D01*
X66148710Y-80822630D01*
X66299652Y-80822630D01*
X66342414Y-80820230D01*
X66376161Y-80813715D01*
X66406173Y-80802585D01*
X66428796Y-80788436D01*
X66446717Y-80770273D01*
X66459204Y-80749113D01*
X66466535Y-80725206D01*
X66469096Y-80697456D01*
X66462928Y-80659537D01*
X66454924Y-80642466D01*
X66443145Y-80627358D01*
X66427816Y-80615058D01*
X66407607Y-80605132D01*
X66384383Y-80599158D01*
X66354301Y-80596950D01*
X66312523Y-80602624D01*
X66260390Y-80621924D01*
X66208273Y-80652552D01*
X66148710Y-80700875D01*
X66029153Y-80700875D01*
X66029153Y-80510000D01*
X66135704Y-80510000D01*
X66138452Y-80602323D01*
X66196516Y-80553762D01*
X66252208Y-80522761D01*
X66311265Y-80504417D01*
X66373413Y-80498276D01*
X66429728Y-80502311D01*
G37*
G36*
X65254781Y-80519769D02*
G01*
X65338129Y-80506275D01*
X65425568Y-80502184D01*
X65491012Y-80506514D01*
X65543406Y-80518397D01*
X65585158Y-80536617D01*
X65618215Y-80560619D01*
X65644658Y-80591694D01*
X65664383Y-80630685D01*
X65677105Y-80679355D01*
X65681718Y-80740015D01*
X65681718Y-81098136D01*
X65873693Y-81098136D01*
X65873693Y-81197787D01*
X65681718Y-81197787D01*
X65681718Y-81385976D01*
X65562894Y-81416629D01*
X65562894Y-81197787D01*
X65254781Y-81197787D01*
X65254781Y-81098136D01*
X65562894Y-81098136D01*
X65562894Y-80749724D01*
X65557966Y-80702094D01*
X65544565Y-80666234D01*
X65523632Y-80639326D01*
X65495229Y-80619975D01*
X65457547Y-80607437D01*
X65407799Y-80602812D01*
X65336114Y-80607513D01*
X65254781Y-80622351D01*
X65254781Y-80519769D01*
G37*
G36*
X64817043Y-80504668D02*
G01*
X64884204Y-80522212D01*
X64942681Y-80551993D01*
X64988373Y-80591638D01*
X65023250Y-80641416D01*
X65048457Y-80703073D01*
X65062823Y-80771606D01*
X65067935Y-80852550D01*
X65062647Y-80923605D01*
X65047114Y-80989631D01*
X65021240Y-81050852D01*
X64986358Y-81103143D01*
X64941994Y-81146883D01*
X64888295Y-81180751D01*
X64848658Y-81196479D01*
X64804960Y-81206165D01*
X64756465Y-81209511D01*
X64687370Y-81203585D01*
X64629397Y-81186857D01*
X64578036Y-81159300D01*
X64536158Y-81122805D01*
X64503221Y-81077537D01*
X64478761Y-81022055D01*
X64464352Y-80960648D01*
X64460505Y-80906650D01*
X64582930Y-80906650D01*
X64584190Y-80951496D01*
X64591784Y-80990792D01*
X64605920Y-81026651D01*
X64625612Y-81056371D01*
X64651167Y-81080715D01*
X64682703Y-81099296D01*
X64718652Y-81110702D01*
X64761899Y-81114745D01*
X64799551Y-81110872D01*
X64832974Y-81099602D01*
X64862778Y-81081463D01*
X64888295Y-81057042D01*
X64908976Y-81027358D01*
X64925847Y-80991097D01*
X64937333Y-80951401D01*
X64943616Y-80906650D01*
X64582930Y-80906650D01*
X64460505Y-80906650D01*
X64459282Y-80889492D01*
X64459954Y-80846994D01*
X64462030Y-80814815D01*
X64943616Y-80814815D01*
X64939486Y-80762486D01*
X64927925Y-80719160D01*
X64909695Y-80683184D01*
X64884875Y-80653309D01*
X64854068Y-80629733D01*
X64816547Y-80612202D01*
X64770926Y-80600981D01*
X64715432Y-80596950D01*
X64655348Y-80599453D01*
X64597280Y-80606353D01*
X64543668Y-80616184D01*
X64496163Y-80628213D01*
X64496163Y-80530516D01*
X64546362Y-80517836D01*
X64605828Y-80507252D01*
X64667600Y-80500553D01*
X64732529Y-80498276D01*
X64817043Y-80504668D01*
G37*
G36*
X62967997Y-80536378D02*
G01*
X63015012Y-80521220D01*
X63063251Y-80510549D01*
X63112590Y-80504299D01*
X63164062Y-80502184D01*
X63245139Y-80508387D01*
X63312312Y-80525743D01*
X63368094Y-80553055D01*
X63414411Y-80590111D01*
X63451125Y-80636426D01*
X63478402Y-80693128D01*
X63495872Y-80762400D01*
X63502156Y-80847055D01*
X63495619Y-80925685D01*
X63476877Y-80994272D01*
X63446152Y-81056150D01*
X63405863Y-81107418D01*
X63355914Y-81148925D01*
X63296564Y-81180019D01*
X63230713Y-81199032D01*
X63156491Y-81205603D01*
X63104146Y-81203712D01*
X63056779Y-81198276D01*
X63011167Y-81188579D01*
X62967997Y-81174340D01*
X62967997Y-81061011D01*
X63013100Y-81080531D01*
X63058489Y-81093740D01*
X63105132Y-81101408D01*
X63153804Y-81103998D01*
X63198450Y-81099627D01*
X63240205Y-81086657D01*
X63278322Y-81065527D01*
X63311585Y-81036648D01*
X63338725Y-81000962D01*
X63360067Y-80957025D01*
X63373208Y-80908098D01*
X63377836Y-80850840D01*
X63373419Y-80788415D01*
X63361241Y-80738113D01*
X63342426Y-80697679D01*
X63317386Y-80665338D01*
X63285397Y-80639158D01*
X63247617Y-80620064D01*
X63202898Y-80608050D01*
X63149713Y-80603789D01*
X63101728Y-80606501D01*
X63055741Y-80614535D01*
X63011177Y-80627937D01*
X62967997Y-80646775D01*
X62967997Y-80536378D01*
G37*
G36*
X62113696Y-80510000D02*
G01*
X62271538Y-80510000D01*
X62456613Y-80771645D01*
X62639734Y-80510000D01*
X62793424Y-80510000D01*
X62527688Y-80855237D01*
X62781090Y-81197787D01*
X62628804Y-81197787D01*
X62448431Y-80934127D01*
X62271538Y-81197787D01*
X62124626Y-81197787D01*
X62382180Y-80852550D01*
X62113696Y-80510000D01*
G37*
G36*
X61400873Y-80780926D02*
G01*
X61406903Y-80723931D01*
X61424809Y-80670894D01*
X61454319Y-80623155D01*
X61496494Y-80581013D01*
X61548857Y-80547433D01*
X61616723Y-80520380D01*
X61692487Y-80504152D01*
X61785434Y-80498276D01*
X61881116Y-80501817D01*
X61960312Y-80510976D01*
X61960312Y-80617466D01*
X61870858Y-80605926D01*
X61774504Y-80601835D01*
X61710084Y-80605047D01*
X61660137Y-80613681D01*
X61615663Y-80628746D01*
X61582590Y-80647875D01*
X61556392Y-80672858D01*
X61538871Y-80702035D01*
X61528734Y-80735244D01*
X61525193Y-80773782D01*
X61529451Y-80808791D01*
X61541618Y-80837834D01*
X61561059Y-80862635D01*
X61587719Y-80883508D01*
X61619448Y-80899291D01*
X61658733Y-80911107D01*
X61701167Y-80917934D01*
X61749225Y-80920327D01*
X61851013Y-80920327D01*
X61851013Y-81018025D01*
X61747881Y-81018025D01*
X61708705Y-81020780D01*
X61674486Y-81028649D01*
X61643303Y-81041870D01*
X61617761Y-81059241D01*
X61596993Y-81081435D01*
X61581552Y-81108456D01*
X61572194Y-81139042D01*
X61568912Y-81174829D01*
X61574348Y-81220889D01*
X61589154Y-81254952D01*
X61612632Y-81280036D01*
X61643584Y-81297306D01*
X61685340Y-81308783D01*
X61741043Y-81313070D01*
X61786367Y-81310913D01*
X61833977Y-81304277D01*
X61936437Y-81277899D01*
X61936437Y-81381458D01*
X61886917Y-81396296D01*
X61834282Y-81407287D01*
X61782014Y-81414187D01*
X61732189Y-81416629D01*
X61663477Y-81412527D01*
X61607136Y-81401181D01*
X61556520Y-81381831D01*
X61517011Y-81356851D01*
X61485162Y-81324825D01*
X61462362Y-81286814D01*
X61448637Y-81243773D01*
X61443860Y-81194063D01*
X61448508Y-81144082D01*
X61461753Y-81101519D01*
X61483183Y-81064919D01*
X61511918Y-81033102D01*
X61547467Y-81005421D01*
X61590772Y-80981816D01*
X61556437Y-80973730D01*
X61522140Y-80960017D01*
X61489980Y-80941334D01*
X61461323Y-80918129D01*
X61436998Y-80890437D01*
X61417604Y-80857862D01*
X61405149Y-80821682D01*
X61400873Y-80780926D01*
G37*
G36*
X60585530Y-81364605D02*
G01*
X60676317Y-81379886D01*
X60746730Y-81384389D01*
X60798268Y-81379202D01*
X60837221Y-81365094D01*
X60866570Y-81343108D01*
X60888094Y-81312673D01*
X60902078Y-81271712D01*
X60907259Y-81216960D01*
X60907259Y-81097159D01*
X60606718Y-81097159D01*
X60606718Y-80998485D01*
X60907259Y-80998485D01*
X60907259Y-80510000D01*
X61028159Y-80510000D01*
X61028159Y-80998485D01*
X61248832Y-80998485D01*
X61248832Y-81097159D01*
X61028159Y-81097159D01*
X61028159Y-81210122D01*
X61021592Y-81286629D01*
X61003558Y-81346838D01*
X60975533Y-81394173D01*
X60937512Y-81431048D01*
X60888022Y-81458593D01*
X60824313Y-81476502D01*
X60742639Y-81483063D01*
X60670027Y-81479210D01*
X60585530Y-81466760D01*
X60585530Y-81364605D01*
G37*
G36*
X59868555Y-80794237D02*
G01*
X59875851Y-80730777D01*
X59897253Y-80674070D01*
X59931156Y-80623789D01*
X59976144Y-80580708D01*
X60029991Y-80546462D01*
X60094663Y-80519952D01*
X60164814Y-80503829D01*
X60242246Y-80498276D01*
X60284928Y-80499192D01*
X60330357Y-80501573D01*
X60374443Y-80504870D01*
X60413033Y-80509023D01*
X60413033Y-80617466D01*
X60328647Y-80605560D01*
X60232660Y-80601835D01*
X60179606Y-80605191D01*
X60134291Y-80614658D01*
X60093094Y-80630667D01*
X60059858Y-80651477D01*
X60032598Y-80678116D01*
X60012719Y-80709607D01*
X60000519Y-80745295D01*
X59996294Y-80786299D01*
X60000400Y-80826448D01*
X60011883Y-80858817D01*
X60030255Y-80885089D01*
X60056072Y-80906284D01*
X60097737Y-80925781D01*
X60153709Y-80938874D01*
X60227897Y-80943775D01*
X60397280Y-80943775D01*
X60397280Y-81400997D01*
X59916365Y-81400997D01*
X59916365Y-81297438D01*
X60285294Y-81297438D01*
X60285294Y-81045380D01*
X60207381Y-81045380D01*
X60143775Y-81042470D01*
X60082389Y-81033839D01*
X60024196Y-81017694D01*
X59974129Y-80993417D01*
X59931331Y-80959749D01*
X59897620Y-80916053D01*
X59882011Y-80882499D01*
X59872094Y-80842362D01*
X59868555Y-80794237D01*
G37*
G36*
X58546651Y-80760104D02*
G01*
X58720858Y-80760104D01*
X58746137Y-80510000D01*
X58847253Y-80510000D01*
X58821974Y-80760104D01*
X58967482Y-80760104D01*
X58967482Y-80849009D01*
X58813120Y-80849009D01*
X58788513Y-81085436D01*
X58932616Y-81085436D01*
X58932616Y-81174340D01*
X58779598Y-81174340D01*
X58756395Y-81400997D01*
X58656683Y-81400997D01*
X58679214Y-81174340D01*
X58504336Y-81174340D01*
X58481072Y-81400997D01*
X58380017Y-81400997D01*
X58403892Y-81174340D01*
X58257040Y-81174340D01*
X58257040Y-81085436D01*
X58412806Y-81085436D01*
X58513190Y-81085436D01*
X58688068Y-81085436D01*
X58712004Y-80849009D01*
X58537126Y-80849009D01*
X58513190Y-81085436D01*
X58412806Y-81085436D01*
X58436681Y-80849009D01*
X58293249Y-80849009D01*
X58293249Y-80760104D01*
X58445596Y-80760104D01*
X58470875Y-80510000D01*
X58571931Y-80510000D01*
X58546651Y-80760104D01*
G37*
G36*
X57535303Y-80963314D02*
G01*
X57654127Y-80963314D01*
X57851597Y-81306475D01*
X58037405Y-80963314D01*
X58145299Y-80963314D01*
X57895317Y-81400997D01*
X57798291Y-81400997D01*
X57535303Y-80963314D01*
G37*
G36*
X56770517Y-80510000D02*
G01*
X57358654Y-80510000D01*
X57358654Y-80616489D01*
X57127784Y-80846566D01*
X57035582Y-80943775D01*
X57002800Y-80984661D01*
X56980261Y-81018696D01*
X56963255Y-81052634D01*
X56953577Y-81082688D01*
X56946739Y-81147718D01*
X56948997Y-81179951D01*
X56955654Y-81210244D01*
X56967013Y-81238433D01*
X56982948Y-81262573D01*
X57003838Y-81282543D01*
X57030758Y-81298110D01*
X57061946Y-81307658D01*
X57101161Y-81311116D01*
X57155727Y-81304747D01*
X57204293Y-81286081D01*
X57248586Y-81257596D01*
X57289656Y-81221235D01*
X57355235Y-81299515D01*
X57300876Y-81347355D01*
X57238792Y-81384633D01*
X57193779Y-81402015D01*
X57142988Y-81412847D01*
X57085408Y-81416629D01*
X57027744Y-81412023D01*
X56977147Y-81398799D01*
X56931318Y-81376895D01*
X56892822Y-81347508D01*
X56861533Y-81310563D01*
X56837806Y-81265382D01*
X56823383Y-81214727D01*
X56818328Y-81155839D01*
X56821843Y-81105718D01*
X56832006Y-81060706D01*
X56848881Y-81017631D01*
X56873344Y-80973450D01*
X56903690Y-80930365D01*
X56943014Y-80883386D01*
X57042421Y-80781414D01*
X57204293Y-80623328D01*
X56770517Y-80623328D01*
X56770517Y-80510000D01*
G37*
G36*
X80228760Y-79072655D02*
G01*
X80235503Y-79011885D01*
X80254711Y-78961158D01*
X80285638Y-78917515D01*
X80327129Y-78881535D01*
X80377066Y-78854264D01*
X80438870Y-78833968D01*
X80505970Y-78822358D01*
X80582607Y-78818276D01*
X80653315Y-78821024D01*
X80720971Y-78827862D01*
X80782092Y-78837388D01*
X80833994Y-78849050D01*
X80833994Y-78966714D01*
X80780874Y-78949981D01*
X80718895Y-78936673D01*
X80652846Y-78928641D01*
X80573753Y-78925743D01*
X80517205Y-78928252D01*
X80473675Y-78934963D01*
X80434859Y-78946899D01*
X80406020Y-78962257D01*
X80383038Y-78982656D01*
X80367796Y-79006343D01*
X80358937Y-79033640D01*
X80355828Y-79065816D01*
X80361004Y-79099836D01*
X80375978Y-79127670D01*
X80398740Y-79151467D01*
X80428917Y-79173466D01*
X80463232Y-79192421D01*
X80503717Y-79210408D01*
X80589446Y-79244968D01*
X80675175Y-79283558D01*
X80715237Y-79306555D01*
X80749975Y-79332834D01*
X80779612Y-79363711D01*
X80802914Y-79399513D01*
X80817775Y-79440265D01*
X80823064Y-79490432D01*
X80818348Y-79535642D01*
X80803952Y-79580741D01*
X80779879Y-79622258D01*
X80744540Y-79659692D01*
X80700012Y-79690099D01*
X80641042Y-79715441D01*
X80574437Y-79730951D01*
X80490405Y-79736629D01*
X80441557Y-79734553D01*
X80388251Y-79728752D01*
X80335006Y-79720143D01*
X80286157Y-79709884D01*
X80286157Y-79600341D01*
X80391365Y-79623239D01*
X80443587Y-79629184D01*
X80493153Y-79631116D01*
X80562425Y-79626424D01*
X80612074Y-79614160D01*
X80646843Y-79596311D01*
X80674438Y-79570072D01*
X80690489Y-79539412D01*
X80695997Y-79502766D01*
X80690835Y-79468678D01*
X80675847Y-79440484D01*
X80653076Y-79416367D01*
X80622907Y-79394017D01*
X80588569Y-79374825D01*
X80548108Y-79356770D01*
X80462379Y-79322210D01*
X80376649Y-79283253D01*
X80336621Y-79259878D01*
X80301850Y-79233000D01*
X80272227Y-79201456D01*
X80248910Y-79164918D01*
X80234048Y-79123504D01*
X80228760Y-79072655D01*
G37*
G36*
X79810134Y-78824668D02*
G01*
X79877295Y-78842212D01*
X79935772Y-78871993D01*
X79981464Y-78911638D01*
X80016341Y-78961416D01*
X80041548Y-79023073D01*
X80055914Y-79091606D01*
X80061027Y-79172550D01*
X80055738Y-79243605D01*
X80040205Y-79309631D01*
X80014331Y-79370852D01*
X79979449Y-79423143D01*
X79935085Y-79466883D01*
X79881386Y-79500751D01*
X79841749Y-79516479D01*
X79798051Y-79526165D01*
X79749556Y-79529511D01*
X79680461Y-79523585D01*
X79622489Y-79506857D01*
X79571127Y-79479300D01*
X79529249Y-79442805D01*
X79496312Y-79397537D01*
X79471852Y-79342055D01*
X79457443Y-79280648D01*
X79453596Y-79226650D01*
X79576021Y-79226650D01*
X79577281Y-79271496D01*
X79584875Y-79310792D01*
X79599011Y-79346651D01*
X79618703Y-79376371D01*
X79644258Y-79400715D01*
X79675795Y-79419296D01*
X79711743Y-79430702D01*
X79754990Y-79434745D01*
X79792642Y-79430872D01*
X79826065Y-79419602D01*
X79855869Y-79401463D01*
X79881386Y-79377042D01*
X79902067Y-79347358D01*
X79918938Y-79311097D01*
X79930424Y-79271401D01*
X79936707Y-79226650D01*
X79576021Y-79226650D01*
X79453596Y-79226650D01*
X79452373Y-79209492D01*
X79453045Y-79166994D01*
X79455121Y-79134815D01*
X79936707Y-79134815D01*
X79932577Y-79082486D01*
X79921016Y-79039160D01*
X79902786Y-79003184D01*
X79877967Y-78973309D01*
X79847159Y-78949733D01*
X79809638Y-78932202D01*
X79764017Y-78920981D01*
X79708523Y-78916950D01*
X79648439Y-78919453D01*
X79590371Y-78926353D01*
X79536759Y-78936184D01*
X79489254Y-78948213D01*
X79489254Y-78850516D01*
X79539453Y-78837836D01*
X79598919Y-78827252D01*
X79660691Y-78820553D01*
X79725620Y-78818276D01*
X79810134Y-78824668D01*
G37*
G36*
X79234753Y-79517787D02*
G01*
X79126126Y-79517787D01*
X79122768Y-79391331D01*
X79079969Y-79437827D01*
X79040129Y-79472369D01*
X79002844Y-79496844D01*
X78962473Y-79515305D01*
X78922925Y-79526003D01*
X78883654Y-79529511D01*
X78831248Y-79524757D01*
X78787961Y-79511398D01*
X78751988Y-79490099D01*
X78722087Y-79460573D01*
X78699852Y-79425235D01*
X78683370Y-79380791D01*
X78673377Y-79325190D01*
X78671224Y-79255959D01*
X78791452Y-79255959D01*
X78794092Y-79315781D01*
X78803510Y-79357743D01*
X78817769Y-79386385D01*
X78839361Y-79408748D01*
X78866428Y-79422180D01*
X78900751Y-79426929D01*
X78924501Y-79424830D01*
X78948867Y-79418381D01*
X78972778Y-79407698D01*
X78998753Y-79391147D01*
X79053097Y-79343154D01*
X79114524Y-79272384D01*
X79114524Y-78830000D01*
X79234753Y-78830000D01*
X79234753Y-79517787D01*
G37*
G36*
X78260285Y-79419113D02*
G01*
X78463190Y-79419113D01*
X78463190Y-79517787D01*
X78140057Y-79517787D01*
X78140057Y-78928674D01*
X77935808Y-78928674D01*
X77935808Y-78830000D01*
X78485721Y-78830000D01*
X78485721Y-78928674D01*
X78260285Y-78928674D01*
X78260285Y-79419113D01*
G37*
G36*
X78218581Y-79806971D02*
G01*
X78181761Y-79799766D01*
X78152024Y-79779616D01*
X78132241Y-79749818D01*
X78125036Y-79713182D01*
X78132241Y-79676851D01*
X78152024Y-79646748D01*
X78181761Y-79626536D01*
X78218581Y-79619392D01*
X78255522Y-79626536D01*
X78285198Y-79646748D01*
X78305043Y-79676851D01*
X78312187Y-79713182D01*
X78305043Y-79749818D01*
X78285198Y-79779616D01*
X78255522Y-79799766D01*
X78218581Y-79806971D01*
G37*
G36*
X77578437Y-78822311D02*
G01*
X77622567Y-78833297D01*
X77661238Y-78851544D01*
X77691199Y-78874574D01*
X77714603Y-78903184D01*
X77730828Y-78936367D01*
X77740229Y-78972971D01*
X77743467Y-79013609D01*
X77738407Y-79063574D01*
X77723924Y-79106215D01*
X77700274Y-79143055D01*
X77666653Y-79175054D01*
X77627420Y-79198837D01*
X77578014Y-79217119D01*
X77516243Y-79229114D01*
X77439507Y-79233489D01*
X77297419Y-79233489D01*
X77297419Y-79293756D01*
X77302000Y-79332656D01*
X77315014Y-79364634D01*
X77336375Y-79391270D01*
X77364589Y-79410539D01*
X77403113Y-79423187D01*
X77455200Y-79427906D01*
X77512861Y-79424591D01*
X77569627Y-79414656D01*
X77626074Y-79398945D01*
X77686070Y-79377103D01*
X77686070Y-79484570D01*
X77635878Y-79501057D01*
X77577504Y-79515467D01*
X77513268Y-79525664D01*
X77445613Y-79529511D01*
X77385215Y-79525928D01*
X77333628Y-79515833D01*
X77286798Y-79498160D01*
X77249242Y-79474068D01*
X77218885Y-79442562D01*
X77196302Y-79403543D01*
X77182729Y-79358719D01*
X77177862Y-79303647D01*
X77177862Y-79020875D01*
X77297419Y-79020875D01*
X77297419Y-79142630D01*
X77448361Y-79142630D01*
X77491122Y-79140230D01*
X77524870Y-79133715D01*
X77554881Y-79122585D01*
X77577504Y-79108436D01*
X77595426Y-79090273D01*
X77607912Y-79069113D01*
X77615243Y-79045206D01*
X77617804Y-79017456D01*
X77611637Y-78979537D01*
X77603633Y-78962466D01*
X77591853Y-78947358D01*
X77576525Y-78935058D01*
X77556316Y-78925132D01*
X77533092Y-78919158D01*
X77503010Y-78916950D01*
X77461232Y-78922624D01*
X77409099Y-78941924D01*
X77356981Y-78972552D01*
X77297419Y-79020875D01*
X77177862Y-79020875D01*
X77177862Y-78830000D01*
X77284413Y-78830000D01*
X77287161Y-78922323D01*
X77345225Y-78873762D01*
X77400917Y-78842761D01*
X77459974Y-78824417D01*
X77522122Y-78818276D01*
X77578437Y-78822311D01*
G37*
G36*
X76722532Y-79697550D02*
G01*
X76925437Y-79697550D01*
X76925437Y-79795247D01*
X76602304Y-79795247D01*
X76602304Y-78928674D01*
X76398056Y-78928674D01*
X76398056Y-78830000D01*
X76947968Y-78830000D01*
X76947968Y-78928674D01*
X76722532Y-78928674D01*
X76722532Y-79697550D01*
G37*
G36*
X75418397Y-79517787D02*
G01*
X75312518Y-79517787D01*
X75307755Y-79406840D01*
X75249687Y-79465764D01*
X75194671Y-79503560D01*
X75167212Y-79515855D01*
X75139716Y-79523710D01*
X75081648Y-79529511D01*
X75029115Y-79525109D01*
X74986029Y-79512813D01*
X74950571Y-79493408D01*
X74921424Y-79466863D01*
X74899207Y-79434500D01*
X74882261Y-79393618D01*
X74871182Y-79342322D01*
X74867141Y-79278307D01*
X74867141Y-78830000D01*
X74985965Y-78830000D01*
X74985965Y-79268782D01*
X74989961Y-79322054D01*
X75000496Y-79360695D01*
X75016068Y-79388217D01*
X75038666Y-79409270D01*
X75067790Y-79422258D01*
X75105522Y-79426929D01*
X75148265Y-79420396D01*
X75168845Y-79411858D01*
X75191618Y-79397803D01*
X75240467Y-79354328D01*
X75299512Y-79285940D01*
X75299512Y-78830000D01*
X75418397Y-78830000D01*
X75418397Y-79517787D01*
G37*
G36*
X74098265Y-78830000D02*
G01*
X74204816Y-78830000D01*
X74208907Y-78940947D01*
X74267342Y-78882023D01*
X74295495Y-78860414D01*
X74322358Y-78844166D01*
X74350033Y-78831894D01*
X74377312Y-78824077D01*
X74435686Y-78818276D01*
X74488217Y-78822660D01*
X74531233Y-78834899D01*
X74566564Y-78854192D01*
X74595543Y-78880558D01*
X74617613Y-78912754D01*
X74634465Y-78953516D01*
X74645496Y-79004757D01*
X74649521Y-79068808D01*
X74649521Y-79517787D01*
X74530636Y-79517787D01*
X74530636Y-79078089D01*
X74524572Y-79014685D01*
X74508837Y-78971587D01*
X74485478Y-78943152D01*
X74454065Y-78926037D01*
X74411812Y-78919881D01*
X74369130Y-78926353D01*
X74348448Y-78934914D01*
X74325411Y-78948946D01*
X74276196Y-78992482D01*
X74217089Y-79061664D01*
X74217089Y-79517787D01*
X74098265Y-79517787D01*
X74098265Y-78830000D01*
G37*
G36*
X73391548Y-78830000D02*
G01*
X73391548Y-79323981D01*
X73393930Y-79376676D01*
X73401440Y-79409221D01*
X73414446Y-79426013D01*
X73433863Y-79430837D01*
X73446959Y-79428797D01*
X73459142Y-79422594D01*
X73484116Y-79395910D01*
X73513486Y-79346878D01*
X73551405Y-79271896D01*
X73551405Y-78830000D01*
X73659971Y-78830000D01*
X73659971Y-79310914D01*
X73662413Y-79371913D01*
X73669924Y-79408244D01*
X73683235Y-79426013D01*
X73703019Y-79430837D01*
X73726283Y-79423998D01*
X73750524Y-79399330D01*
X73780261Y-79350664D01*
X73819156Y-79271896D01*
X73819156Y-78830000D01*
X73928455Y-78830000D01*
X73928455Y-79517787D01*
X73837597Y-79517787D01*
X73832162Y-79386934D01*
X73797663Y-79453124D01*
X73780054Y-79478547D01*
X73763164Y-79497088D01*
X73744515Y-79511773D01*
X73725245Y-79521634D01*
X73704336Y-79527479D01*
X73680487Y-79529511D01*
X73645343Y-79525163D01*
X73617957Y-79513028D01*
X73596468Y-79493302D01*
X73581608Y-79467515D01*
X73571573Y-79431326D01*
X73567769Y-79381439D01*
X73535713Y-79444515D01*
X73501885Y-79490921D01*
X73482611Y-79507648D01*
X73461890Y-79519619D01*
X73438887Y-79526926D01*
X73411332Y-79529511D01*
X73373530Y-79524471D01*
X73343479Y-79510212D01*
X73319258Y-79486526D01*
X73300242Y-79451294D01*
X73287222Y-79400843D01*
X73282250Y-79330331D01*
X73282250Y-78830000D01*
X73391548Y-78830000D01*
G37*
G36*
X72836445Y-79529511D02*
G01*
X72815800Y-79527369D01*
X72796206Y-79520963D01*
X72762684Y-79498004D01*
X72739847Y-79464481D01*
X72733444Y-79444871D01*
X72731299Y-79424120D01*
X72733465Y-79402884D01*
X72739847Y-79383454D01*
X72762684Y-79350237D01*
X72796206Y-79327644D01*
X72815783Y-79321516D01*
X72836445Y-79319462D01*
X72857700Y-79321540D01*
X72877112Y-79327644D01*
X72910268Y-79350237D01*
X72932799Y-79383454D01*
X72938904Y-79402866D01*
X72940981Y-79424120D01*
X72938925Y-79444889D01*
X72932799Y-79464481D01*
X72910268Y-79498004D01*
X72877112Y-79520963D01*
X72857682Y-79527344D01*
X72836445Y-79529511D01*
G37*
G36*
X72836445Y-79028325D02*
G01*
X72815800Y-79026183D01*
X72796206Y-79019776D01*
X72762684Y-78996817D01*
X72739847Y-78963295D01*
X72733444Y-78943685D01*
X72731299Y-78922934D01*
X72733465Y-78901697D01*
X72739847Y-78882267D01*
X72762684Y-78849050D01*
X72796206Y-78826519D01*
X72815786Y-78820344D01*
X72836445Y-78818276D01*
X72857697Y-78820368D01*
X72877112Y-78826519D01*
X72910268Y-78849050D01*
X72932799Y-78882267D01*
X72938904Y-78901679D01*
X72940981Y-78922934D01*
X72938925Y-78943702D01*
X72932799Y-78963295D01*
X72910268Y-78996817D01*
X72877112Y-79019776D01*
X72857682Y-79026158D01*
X72836445Y-79028325D01*
G37*
G36*
X71374862Y-78825197D02*
G01*
X71436018Y-78845265D01*
X71472916Y-78866266D01*
X71506294Y-78893760D01*
X71536463Y-78928368D01*
X71561126Y-78967335D01*
X71582635Y-79014530D01*
X71600638Y-79071250D01*
X71617110Y-79162345D01*
X71623169Y-79277086D01*
X71617748Y-79377145D01*
X71602347Y-79464481D01*
X71575709Y-79544817D01*
X71540187Y-79609806D01*
X71510041Y-79647399D01*
X71475656Y-79678452D01*
X71436689Y-79703473D01*
X71394091Y-79721533D01*
X71346169Y-79732730D01*
X71291915Y-79736629D01*
X71222587Y-79729693D01*
X71161428Y-79709579D01*
X71124559Y-79688587D01*
X71091201Y-79661000D01*
X71061044Y-79626170D01*
X71036329Y-79586970D01*
X71014801Y-79539642D01*
X70996808Y-79482922D01*
X70996044Y-79478709D01*
X71122471Y-79478709D01*
X71148422Y-79541906D01*
X71165839Y-79568752D01*
X71185974Y-79591182D01*
X71209360Y-79609627D01*
X71235861Y-79623483D01*
X71265044Y-79632039D01*
X71298692Y-79635024D01*
X71343294Y-79629318D01*
X71383078Y-79612493D01*
X71417514Y-79585163D01*
X71447680Y-79545326D01*
X71470544Y-79497194D01*
X71488652Y-79434806D01*
X71499126Y-79366360D01*
X71502940Y-79282398D01*
X71502635Y-79240144D01*
X71500254Y-79199295D01*
X71122471Y-79478709D01*
X70996044Y-79478709D01*
X70980292Y-79391871D01*
X70974216Y-79277086D01*
X70974373Y-79274155D01*
X71094444Y-79274155D01*
X71096154Y-79320439D01*
X71099940Y-79365380D01*
X71477722Y-79084012D01*
X71451771Y-79017822D01*
X71434191Y-78989320D01*
X71413853Y-78965737D01*
X71390072Y-78946393D01*
X71363295Y-78931910D01*
X71333594Y-78923010D01*
X71298692Y-78919881D01*
X71254151Y-78925614D01*
X71214367Y-78942534D01*
X71179930Y-78970001D01*
X71149826Y-79009823D01*
X71126936Y-79057960D01*
X71108793Y-79120710D01*
X71098274Y-79189652D01*
X71094444Y-79274155D01*
X70974373Y-79274155D01*
X70979563Y-79177105D01*
X70994732Y-79090057D01*
X71021187Y-79010071D01*
X71056892Y-78945099D01*
X71087206Y-78907473D01*
X71121598Y-78876423D01*
X71160390Y-78851432D01*
X71202761Y-78833406D01*
X71250784Y-78822193D01*
X71305531Y-78818276D01*
X71374862Y-78825197D01*
G37*
G36*
X70605986Y-78825197D02*
G01*
X70667141Y-78845265D01*
X70704040Y-78866266D01*
X70737418Y-78893760D01*
X70767586Y-78928368D01*
X70792249Y-78967335D01*
X70813759Y-79014530D01*
X70831761Y-79071250D01*
X70848234Y-79162345D01*
X70854292Y-79277086D01*
X70848871Y-79377145D01*
X70833471Y-79464481D01*
X70806833Y-79544817D01*
X70771311Y-79609806D01*
X70741164Y-79647399D01*
X70706779Y-79678452D01*
X70667813Y-79703473D01*
X70625215Y-79721533D01*
X70577293Y-79732730D01*
X70523038Y-79736629D01*
X70453710Y-79729693D01*
X70392551Y-79709579D01*
X70355682Y-79688587D01*
X70322325Y-79661000D01*
X70292168Y-79626170D01*
X70267452Y-79586970D01*
X70245924Y-79539642D01*
X70227932Y-79482922D01*
X70227168Y-79478709D01*
X70353595Y-79478709D01*
X70379545Y-79541906D01*
X70396962Y-79568752D01*
X70417098Y-79591182D01*
X70440483Y-79609627D01*
X70466984Y-79623483D01*
X70496168Y-79632039D01*
X70529816Y-79635024D01*
X70574417Y-79629318D01*
X70614202Y-79612493D01*
X70648638Y-79585163D01*
X70678804Y-79545326D01*
X70701668Y-79497194D01*
X70719776Y-79434806D01*
X70730249Y-79366360D01*
X70734064Y-79282398D01*
X70733759Y-79240144D01*
X70731377Y-79199295D01*
X70353595Y-79478709D01*
X70227168Y-79478709D01*
X70211416Y-79391871D01*
X70205339Y-79277086D01*
X70205496Y-79274155D01*
X70325568Y-79274155D01*
X70327277Y-79320439D01*
X70331063Y-79365380D01*
X70708846Y-79084012D01*
X70682895Y-79017822D01*
X70665314Y-78989320D01*
X70644976Y-78965737D01*
X70621196Y-78946393D01*
X70594418Y-78931910D01*
X70564717Y-78923010D01*
X70529816Y-78919881D01*
X70485274Y-78925614D01*
X70445491Y-78942534D01*
X70411054Y-78970001D01*
X70380950Y-79009823D01*
X70358060Y-79057960D01*
X70339917Y-79120710D01*
X70329398Y-79189652D01*
X70325568Y-79274155D01*
X70205496Y-79274155D01*
X70210686Y-79177105D01*
X70225856Y-79090057D01*
X70252310Y-79010071D01*
X70288015Y-78945099D01*
X70318329Y-78907473D01*
X70352721Y-78876423D01*
X70391513Y-78851432D01*
X70433884Y-78833406D01*
X70481908Y-78822193D01*
X70536655Y-78818276D01*
X70605986Y-78825197D01*
G37*
G36*
X69464490Y-78830000D02*
G01*
X70025332Y-78830000D01*
X70025332Y-78940397D01*
X69795805Y-78940397D01*
X69795805Y-79593991D01*
X70009640Y-79478709D01*
X70053359Y-79580314D01*
X69769183Y-79728813D01*
X69663975Y-79728813D01*
X69663975Y-78940397D01*
X69464490Y-78940397D01*
X69464490Y-78830000D01*
G37*
G36*
X69068233Y-78825197D02*
G01*
X69129388Y-78845265D01*
X69166287Y-78866266D01*
X69199665Y-78893760D01*
X69229833Y-78928368D01*
X69254496Y-78967335D01*
X69276006Y-79014530D01*
X69294008Y-79071250D01*
X69310481Y-79162345D01*
X69316539Y-79277086D01*
X69311118Y-79377145D01*
X69295718Y-79464481D01*
X69269080Y-79544817D01*
X69233558Y-79609806D01*
X69203411Y-79647399D01*
X69169026Y-79678452D01*
X69130060Y-79703473D01*
X69087462Y-79721533D01*
X69039540Y-79732730D01*
X68985285Y-79736629D01*
X68915957Y-79729693D01*
X68854798Y-79709579D01*
X68817929Y-79688587D01*
X68784572Y-79661000D01*
X68754415Y-79626170D01*
X68729699Y-79586970D01*
X68708171Y-79539642D01*
X68690179Y-79482922D01*
X68689415Y-79478709D01*
X68815842Y-79478709D01*
X68841792Y-79541906D01*
X68859209Y-79568752D01*
X68879345Y-79591182D01*
X68902730Y-79609627D01*
X68929231Y-79623483D01*
X68958415Y-79632039D01*
X68992063Y-79635024D01*
X69036664Y-79629318D01*
X69076449Y-79612493D01*
X69110885Y-79585163D01*
X69141051Y-79545326D01*
X69163915Y-79497194D01*
X69182023Y-79434806D01*
X69192496Y-79366360D01*
X69196311Y-79282398D01*
X69196006Y-79240144D01*
X69193624Y-79199295D01*
X68815842Y-79478709D01*
X68689415Y-79478709D01*
X68673663Y-79391871D01*
X68667586Y-79277086D01*
X68667743Y-79274155D01*
X68787815Y-79274155D01*
X68789524Y-79320439D01*
X68793310Y-79365380D01*
X69171093Y-79084012D01*
X69145142Y-79017822D01*
X69127561Y-78989320D01*
X69107223Y-78965737D01*
X69083443Y-78946393D01*
X69056665Y-78931910D01*
X69026964Y-78923010D01*
X68992063Y-78919881D01*
X68947521Y-78925614D01*
X68907738Y-78942534D01*
X68873301Y-78970001D01*
X68843197Y-79009823D01*
X68820307Y-79057960D01*
X68802164Y-79120710D01*
X68791645Y-79189652D01*
X68787815Y-79274155D01*
X68667743Y-79274155D01*
X68672933Y-79177105D01*
X68688103Y-79090057D01*
X68714557Y-79010071D01*
X68750262Y-78945099D01*
X68780576Y-78907473D01*
X68814968Y-78876423D01*
X68853760Y-78851432D01*
X68896131Y-78833406D01*
X68944155Y-78822193D01*
X68998902Y-78818276D01*
X69068233Y-78825197D01*
G37*
G36*
X68299356Y-78825197D02*
G01*
X68360512Y-78845265D01*
X68397410Y-78866266D01*
X68430788Y-78893760D01*
X68460957Y-78928368D01*
X68485620Y-78967335D01*
X68507130Y-79014530D01*
X68525132Y-79071250D01*
X68541604Y-79162345D01*
X68547663Y-79277086D01*
X68542242Y-79377145D01*
X68526841Y-79464481D01*
X68500203Y-79544817D01*
X68464681Y-79609806D01*
X68434535Y-79647399D01*
X68400150Y-79678452D01*
X68361184Y-79703473D01*
X68318585Y-79721533D01*
X68270663Y-79732730D01*
X68216409Y-79736629D01*
X68147081Y-79729693D01*
X68085922Y-79709579D01*
X68049053Y-79688587D01*
X68015695Y-79661000D01*
X67985538Y-79626170D01*
X67960823Y-79586970D01*
X67939295Y-79539642D01*
X67921302Y-79482922D01*
X67920538Y-79478709D01*
X68046965Y-79478709D01*
X68072916Y-79541906D01*
X68090333Y-79568752D01*
X68110468Y-79591182D01*
X68133854Y-79609627D01*
X68160355Y-79623483D01*
X68189538Y-79632039D01*
X68223186Y-79635024D01*
X68267788Y-79629318D01*
X68307572Y-79612493D01*
X68342008Y-79585163D01*
X68372174Y-79545326D01*
X68395038Y-79497194D01*
X68413146Y-79434806D01*
X68423620Y-79366360D01*
X68427434Y-79282398D01*
X68427129Y-79240144D01*
X68424748Y-79199295D01*
X68046965Y-79478709D01*
X67920538Y-79478709D01*
X67904786Y-79391871D01*
X67898710Y-79277086D01*
X67898867Y-79274155D01*
X68018938Y-79274155D01*
X68020648Y-79320439D01*
X68024434Y-79365380D01*
X68402216Y-79084012D01*
X68376266Y-79017822D01*
X68358685Y-78989320D01*
X68338347Y-78965737D01*
X68314566Y-78946393D01*
X68287789Y-78931910D01*
X68258088Y-78923010D01*
X68223186Y-78919881D01*
X68178645Y-78925614D01*
X68138862Y-78942534D01*
X68104424Y-78970001D01*
X68074320Y-79009823D01*
X68051430Y-79057960D01*
X68033288Y-79120710D01*
X68022768Y-79189652D01*
X68018938Y-79274155D01*
X67898867Y-79274155D01*
X67904057Y-79177105D01*
X67919226Y-79090057D01*
X67945681Y-79010071D01*
X67981386Y-78945099D01*
X68011700Y-78907473D01*
X68046092Y-78876423D01*
X68084884Y-78851432D01*
X68127255Y-78833406D01*
X68175278Y-78822193D01*
X68230025Y-78818276D01*
X68299356Y-78825197D01*
G37*
G36*
X67530480Y-78825197D02*
G01*
X67591635Y-78845265D01*
X67628534Y-78866266D01*
X67661912Y-78893760D01*
X67692080Y-78928368D01*
X67716743Y-78967335D01*
X67738253Y-79014530D01*
X67756255Y-79071250D01*
X67772728Y-79162345D01*
X67778786Y-79277086D01*
X67773365Y-79377145D01*
X67757965Y-79464481D01*
X67731327Y-79544817D01*
X67695805Y-79609806D01*
X67665658Y-79647399D01*
X67631273Y-79678452D01*
X67592307Y-79703473D01*
X67549709Y-79721533D01*
X67501787Y-79732730D01*
X67447532Y-79736629D01*
X67378204Y-79729693D01*
X67317045Y-79709579D01*
X67280176Y-79688587D01*
X67246819Y-79661000D01*
X67216662Y-79626170D01*
X67191946Y-79586970D01*
X67170418Y-79539642D01*
X67152426Y-79482922D01*
X67151662Y-79478709D01*
X67278089Y-79478709D01*
X67304039Y-79541906D01*
X67321456Y-79568752D01*
X67341592Y-79591182D01*
X67364977Y-79609627D01*
X67391478Y-79623483D01*
X67420662Y-79632039D01*
X67454310Y-79635024D01*
X67498912Y-79629318D01*
X67538696Y-79612493D01*
X67573132Y-79585163D01*
X67603298Y-79545326D01*
X67626162Y-79497194D01*
X67644270Y-79434806D01*
X67654744Y-79366360D01*
X67658558Y-79282398D01*
X67658253Y-79240144D01*
X67655871Y-79199295D01*
X67278089Y-79478709D01*
X67151662Y-79478709D01*
X67135910Y-79391871D01*
X67129833Y-79277086D01*
X67129990Y-79274155D01*
X67250062Y-79274155D01*
X67251771Y-79320439D01*
X67255557Y-79365380D01*
X67633340Y-79084012D01*
X67607389Y-79017822D01*
X67589808Y-78989320D01*
X67569470Y-78965737D01*
X67545690Y-78946393D01*
X67518912Y-78931910D01*
X67489211Y-78923010D01*
X67454310Y-78919881D01*
X67409768Y-78925614D01*
X67369985Y-78942534D01*
X67335548Y-78970001D01*
X67305444Y-79009823D01*
X67282554Y-79057960D01*
X67264411Y-79120710D01*
X67253892Y-79189652D01*
X67250062Y-79274155D01*
X67129990Y-79274155D01*
X67135180Y-79177105D01*
X67150350Y-79090057D01*
X67176804Y-79010071D01*
X67212509Y-78945099D01*
X67242824Y-78907473D01*
X67277215Y-78876423D01*
X67316007Y-78851432D01*
X67358378Y-78833406D01*
X67406402Y-78822193D01*
X67461149Y-78818276D01*
X67530480Y-78825197D01*
G37*
G36*
X66761603Y-78825197D02*
G01*
X66822759Y-78845265D01*
X66859657Y-78866266D01*
X66893035Y-78893760D01*
X66923204Y-78928368D01*
X66947867Y-78967335D01*
X66969377Y-79014530D01*
X66987379Y-79071250D01*
X67003851Y-79162345D01*
X67009910Y-79277086D01*
X67004489Y-79377145D01*
X66989088Y-79464481D01*
X66962450Y-79544817D01*
X66926928Y-79609806D01*
X66896782Y-79647399D01*
X66862397Y-79678452D01*
X66823431Y-79703473D01*
X66780833Y-79721533D01*
X66732910Y-79732730D01*
X66678656Y-79736629D01*
X66609328Y-79729693D01*
X66548169Y-79709579D01*
X66511300Y-79688587D01*
X66477942Y-79661000D01*
X66447785Y-79626170D01*
X66423070Y-79586970D01*
X66401542Y-79539642D01*
X66383549Y-79482922D01*
X66382785Y-79478709D01*
X66509212Y-79478709D01*
X66535163Y-79541906D01*
X66552580Y-79568752D01*
X66572715Y-79591182D01*
X66596101Y-79609627D01*
X66622602Y-79623483D01*
X66651785Y-79632039D01*
X66685433Y-79635024D01*
X66730035Y-79629318D01*
X66769819Y-79612493D01*
X66804255Y-79585163D01*
X66834422Y-79545326D01*
X66857285Y-79497194D01*
X66875393Y-79434806D01*
X66885867Y-79366360D01*
X66889681Y-79282398D01*
X66889376Y-79240144D01*
X66886995Y-79199295D01*
X66509212Y-79478709D01*
X66382785Y-79478709D01*
X66367034Y-79391871D01*
X66360957Y-79277086D01*
X66361114Y-79274155D01*
X66481185Y-79274155D01*
X66482895Y-79320439D01*
X66486681Y-79365380D01*
X66864463Y-79084012D01*
X66838513Y-79017822D01*
X66820932Y-78989320D01*
X66800594Y-78965737D01*
X66776813Y-78946393D01*
X66750036Y-78931910D01*
X66720335Y-78923010D01*
X66685433Y-78919881D01*
X66640892Y-78925614D01*
X66601109Y-78942534D01*
X66566672Y-78970001D01*
X66536567Y-79009823D01*
X66513677Y-79057960D01*
X66495535Y-79120710D01*
X66485015Y-79189652D01*
X66481185Y-79274155D01*
X66361114Y-79274155D01*
X66366304Y-79177105D01*
X66381473Y-79090057D01*
X66407928Y-79010071D01*
X66443633Y-78945099D01*
X66473947Y-78907473D01*
X66508339Y-78876423D01*
X66547131Y-78851432D01*
X66589502Y-78833406D01*
X66637525Y-78822193D01*
X66692272Y-78818276D01*
X66761603Y-78825197D01*
G37*
G36*
X65992727Y-78825197D02*
G01*
X66053882Y-78845265D01*
X66090781Y-78866266D01*
X66124159Y-78893760D01*
X66154327Y-78928368D01*
X66178990Y-78967335D01*
X66200500Y-79014530D01*
X66218502Y-79071250D01*
X66234975Y-79162345D01*
X66241034Y-79277086D01*
X66235613Y-79377145D01*
X66220212Y-79464481D01*
X66193574Y-79544817D01*
X66158052Y-79609806D01*
X66127905Y-79647399D01*
X66093520Y-79678452D01*
X66054554Y-79703473D01*
X66011956Y-79721533D01*
X65964034Y-79732730D01*
X65909779Y-79736629D01*
X65840451Y-79729693D01*
X65779292Y-79709579D01*
X65742423Y-79688587D01*
X65709066Y-79661000D01*
X65678909Y-79626170D01*
X65654193Y-79586970D01*
X65632665Y-79539642D01*
X65614673Y-79482922D01*
X65613909Y-79478709D01*
X65740336Y-79478709D01*
X65766286Y-79541906D01*
X65783703Y-79568752D01*
X65803839Y-79591182D01*
X65827224Y-79609627D01*
X65853725Y-79623483D01*
X65882909Y-79632039D01*
X65916557Y-79635024D01*
X65961159Y-79629318D01*
X66000943Y-79612493D01*
X66035379Y-79585163D01*
X66065545Y-79545326D01*
X66088409Y-79497194D01*
X66106517Y-79434806D01*
X66116991Y-79366360D01*
X66120805Y-79282398D01*
X66120500Y-79240144D01*
X66118118Y-79199295D01*
X65740336Y-79478709D01*
X65613909Y-79478709D01*
X65598157Y-79391871D01*
X65592080Y-79277086D01*
X65592237Y-79274155D01*
X65712309Y-79274155D01*
X65714019Y-79320439D01*
X65717804Y-79365380D01*
X66095587Y-79084012D01*
X66069636Y-79017822D01*
X66052055Y-78989320D01*
X66031717Y-78965737D01*
X66007937Y-78946393D01*
X65981159Y-78931910D01*
X65951458Y-78923010D01*
X65916557Y-78919881D01*
X65872015Y-78925614D01*
X65832232Y-78942534D01*
X65797795Y-78970001D01*
X65767691Y-79009823D01*
X65744801Y-79057960D01*
X65726658Y-79120710D01*
X65716139Y-79189652D01*
X65712309Y-79274155D01*
X65592237Y-79274155D01*
X65597427Y-79177105D01*
X65612597Y-79090057D01*
X65639052Y-79010071D01*
X65674756Y-78945099D01*
X65705071Y-78907473D01*
X65739462Y-78876423D01*
X65778254Y-78851432D01*
X65820626Y-78833406D01*
X65868649Y-78822193D01*
X65923396Y-78818276D01*
X65992727Y-78825197D01*
G37*
G36*
X64851231Y-78830000D02*
G01*
X65412073Y-78830000D01*
X65412073Y-78940397D01*
X65182546Y-78940397D01*
X65182546Y-79593991D01*
X65396381Y-79478709D01*
X65440100Y-79580314D01*
X65155924Y-79728813D01*
X65050716Y-79728813D01*
X65050716Y-78940397D01*
X64851231Y-78940397D01*
X64851231Y-78830000D01*
G37*
G36*
X64454974Y-78825197D02*
G01*
X64516129Y-78845265D01*
X64553028Y-78866266D01*
X64586406Y-78893760D01*
X64616574Y-78928368D01*
X64641237Y-78967335D01*
X64662747Y-79014530D01*
X64680749Y-79071250D01*
X64697222Y-79162345D01*
X64703281Y-79277086D01*
X64697860Y-79377145D01*
X64682459Y-79464481D01*
X64655821Y-79544817D01*
X64620299Y-79609806D01*
X64590152Y-79647399D01*
X64555767Y-79678452D01*
X64516801Y-79703473D01*
X64474203Y-79721533D01*
X64426281Y-79732730D01*
X64372026Y-79736629D01*
X64302698Y-79729693D01*
X64241539Y-79709579D01*
X64204670Y-79688587D01*
X64171313Y-79661000D01*
X64141156Y-79626170D01*
X64116440Y-79586970D01*
X64094912Y-79539642D01*
X64076920Y-79482922D01*
X64076156Y-79478709D01*
X64202583Y-79478709D01*
X64228534Y-79541906D01*
X64245950Y-79568752D01*
X64266086Y-79591182D01*
X64289471Y-79609627D01*
X64315972Y-79623483D01*
X64345156Y-79632039D01*
X64378804Y-79635024D01*
X64423406Y-79629318D01*
X64463190Y-79612493D01*
X64497626Y-79585163D01*
X64527792Y-79545326D01*
X64550656Y-79497194D01*
X64568764Y-79434806D01*
X64579238Y-79366360D01*
X64583052Y-79282398D01*
X64582747Y-79240144D01*
X64580365Y-79199295D01*
X64202583Y-79478709D01*
X64076156Y-79478709D01*
X64060404Y-79391871D01*
X64054327Y-79277086D01*
X64054484Y-79274155D01*
X64174556Y-79274155D01*
X64176266Y-79320439D01*
X64180051Y-79365380D01*
X64557834Y-79084012D01*
X64531883Y-79017822D01*
X64514302Y-78989320D01*
X64493964Y-78965737D01*
X64470184Y-78946393D01*
X64443406Y-78931910D01*
X64413705Y-78923010D01*
X64378804Y-78919881D01*
X64334262Y-78925614D01*
X64294479Y-78942534D01*
X64260042Y-78970001D01*
X64229938Y-79009823D01*
X64207048Y-79057960D01*
X64188905Y-79120710D01*
X64178386Y-79189652D01*
X64174556Y-79274155D01*
X64054484Y-79274155D01*
X64059674Y-79177105D01*
X64074844Y-79090057D01*
X64101299Y-79010071D01*
X64137004Y-78945099D01*
X64167318Y-78907473D01*
X64201709Y-78876423D01*
X64240501Y-78851432D01*
X64282873Y-78833406D01*
X64330896Y-78822193D01*
X64385643Y-78818276D01*
X64454974Y-78825197D01*
G37*
G36*
X63686097Y-78825197D02*
G01*
X63747253Y-78845265D01*
X63784151Y-78866266D01*
X63817529Y-78893760D01*
X63847698Y-78928368D01*
X63872361Y-78967335D01*
X63893871Y-79014530D01*
X63911873Y-79071250D01*
X63928345Y-79162345D01*
X63934404Y-79277086D01*
X63928983Y-79377145D01*
X63913582Y-79464481D01*
X63886944Y-79544817D01*
X63851423Y-79609806D01*
X63821276Y-79647399D01*
X63786891Y-79678452D01*
X63747925Y-79703473D01*
X63705327Y-79721533D01*
X63657404Y-79732730D01*
X63603150Y-79736629D01*
X63533822Y-79729693D01*
X63472663Y-79709579D01*
X63435794Y-79688587D01*
X63402437Y-79661000D01*
X63372279Y-79626170D01*
X63347564Y-79586970D01*
X63326036Y-79539642D01*
X63308043Y-79482922D01*
X63307279Y-79478709D01*
X63433706Y-79478709D01*
X63459657Y-79541906D01*
X63477074Y-79568752D01*
X63497209Y-79591182D01*
X63520595Y-79609627D01*
X63547096Y-79623483D01*
X63576279Y-79632039D01*
X63609927Y-79635024D01*
X63654529Y-79629318D01*
X63694313Y-79612493D01*
X63728749Y-79585163D01*
X63758916Y-79545326D01*
X63781779Y-79497194D01*
X63799887Y-79434806D01*
X63810361Y-79366360D01*
X63814176Y-79282398D01*
X63813870Y-79240144D01*
X63811489Y-79199295D01*
X63433706Y-79478709D01*
X63307279Y-79478709D01*
X63291528Y-79391871D01*
X63285451Y-79277086D01*
X63285608Y-79274155D01*
X63405679Y-79274155D01*
X63407389Y-79320439D01*
X63411175Y-79365380D01*
X63788957Y-79084012D01*
X63763007Y-79017822D01*
X63745426Y-78989320D01*
X63725088Y-78965737D01*
X63701307Y-78946393D01*
X63674530Y-78931910D01*
X63644829Y-78923010D01*
X63609927Y-78919881D01*
X63565386Y-78925614D01*
X63525603Y-78942534D01*
X63491166Y-78970001D01*
X63461061Y-79009823D01*
X63438171Y-79057960D01*
X63420029Y-79120710D01*
X63409509Y-79189652D01*
X63405679Y-79274155D01*
X63285608Y-79274155D01*
X63290798Y-79177105D01*
X63305967Y-79090057D01*
X63332422Y-79010071D01*
X63368127Y-78945099D01*
X63398441Y-78907473D01*
X63432833Y-78876423D01*
X63471625Y-78851432D01*
X63513996Y-78833406D01*
X63562019Y-78822193D01*
X63616766Y-78818276D01*
X63686097Y-78825197D01*
G37*
G36*
X62917221Y-78825197D02*
G01*
X62978377Y-78845265D01*
X63015275Y-78866266D01*
X63048653Y-78893760D01*
X63078821Y-78928368D01*
X63103484Y-78967335D01*
X63124994Y-79014530D01*
X63142996Y-79071250D01*
X63159469Y-79162345D01*
X63165528Y-79277086D01*
X63160107Y-79377145D01*
X63144706Y-79464481D01*
X63118068Y-79544817D01*
X63082546Y-79609806D01*
X63052399Y-79647399D01*
X63018014Y-79678452D01*
X62979048Y-79703473D01*
X62936450Y-79721533D01*
X62888528Y-79732730D01*
X62834273Y-79736629D01*
X62764945Y-79729693D01*
X62703786Y-79709579D01*
X62666917Y-79688587D01*
X62633560Y-79661000D01*
X62603403Y-79626170D01*
X62578687Y-79586970D01*
X62557159Y-79539642D01*
X62539167Y-79482922D01*
X62538403Y-79478709D01*
X62664830Y-79478709D01*
X62690781Y-79541906D01*
X62708197Y-79568752D01*
X62728333Y-79591182D01*
X62751718Y-79609627D01*
X62778219Y-79623483D01*
X62807403Y-79632039D01*
X62841051Y-79635024D01*
X62885653Y-79629318D01*
X62925437Y-79612493D01*
X62959873Y-79585163D01*
X62990039Y-79545326D01*
X63012903Y-79497194D01*
X63031011Y-79434806D01*
X63041485Y-79366360D01*
X63045299Y-79282398D01*
X63044994Y-79240144D01*
X63042612Y-79199295D01*
X62664830Y-79478709D01*
X62538403Y-79478709D01*
X62522651Y-79391871D01*
X62516574Y-79277086D01*
X62516731Y-79274155D01*
X62636803Y-79274155D01*
X62638513Y-79320439D01*
X62642298Y-79365380D01*
X63020081Y-79084012D01*
X62994130Y-79017822D01*
X62976549Y-78989320D01*
X62956211Y-78965737D01*
X62932431Y-78946393D01*
X62905653Y-78931910D01*
X62875952Y-78923010D01*
X62841051Y-78919881D01*
X62796509Y-78925614D01*
X62756726Y-78942534D01*
X62722289Y-78970001D01*
X62692185Y-79009823D01*
X62669295Y-79057960D01*
X62651152Y-79120710D01*
X62640633Y-79189652D01*
X62636803Y-79274155D01*
X62516731Y-79274155D01*
X62521921Y-79177105D01*
X62537091Y-79090057D01*
X62563546Y-79010071D01*
X62599251Y-78945099D01*
X62629565Y-78907473D01*
X62663956Y-78876423D01*
X62702748Y-78851432D01*
X62745120Y-78833406D01*
X62793143Y-78822193D01*
X62847890Y-78818276D01*
X62917221Y-78825197D01*
G37*
G36*
X62148344Y-78825197D02*
G01*
X62209500Y-78845265D01*
X62246398Y-78866266D01*
X62279776Y-78893760D01*
X62309945Y-78928368D01*
X62334608Y-78967335D01*
X62356118Y-79014530D01*
X62374120Y-79071250D01*
X62390592Y-79162345D01*
X62396651Y-79277086D01*
X62391230Y-79377145D01*
X62375829Y-79464481D01*
X62349191Y-79544817D01*
X62313670Y-79609806D01*
X62283523Y-79647399D01*
X62249138Y-79678452D01*
X62210172Y-79703473D01*
X62167574Y-79721533D01*
X62119651Y-79732730D01*
X62065397Y-79736629D01*
X61996069Y-79729693D01*
X61934910Y-79709579D01*
X61898041Y-79688587D01*
X61864684Y-79661000D01*
X61834526Y-79626170D01*
X61809811Y-79586970D01*
X61788283Y-79539642D01*
X61770290Y-79482922D01*
X61769526Y-79478709D01*
X61895953Y-79478709D01*
X61921904Y-79541906D01*
X61939321Y-79568752D01*
X61959456Y-79591182D01*
X61982842Y-79609627D01*
X62009343Y-79623483D01*
X62038526Y-79632039D01*
X62072174Y-79635024D01*
X62116776Y-79629318D01*
X62156560Y-79612493D01*
X62190996Y-79585163D01*
X62221163Y-79545326D01*
X62244027Y-79497194D01*
X62262134Y-79434806D01*
X62272608Y-79366360D01*
X62276423Y-79282398D01*
X62276117Y-79240144D01*
X62273736Y-79199295D01*
X61895953Y-79478709D01*
X61769526Y-79478709D01*
X61753775Y-79391871D01*
X61747698Y-79277086D01*
X61747855Y-79274155D01*
X61867926Y-79274155D01*
X61869636Y-79320439D01*
X61873422Y-79365380D01*
X62251204Y-79084012D01*
X62225254Y-79017822D01*
X62207673Y-78989320D01*
X62187335Y-78965737D01*
X62163554Y-78946393D01*
X62136777Y-78931910D01*
X62107076Y-78923010D01*
X62072174Y-78919881D01*
X62027633Y-78925614D01*
X61987850Y-78942534D01*
X61953413Y-78970001D01*
X61923308Y-79009823D01*
X61900418Y-79057960D01*
X61882276Y-79120710D01*
X61871756Y-79189652D01*
X61867926Y-79274155D01*
X61747855Y-79274155D01*
X61753045Y-79177105D01*
X61768214Y-79090057D01*
X61794669Y-79010071D01*
X61830374Y-78945099D01*
X61860688Y-78907473D01*
X61895080Y-78876423D01*
X61933872Y-78851432D01*
X61976243Y-78833406D01*
X62024266Y-78822193D01*
X62079013Y-78818276D01*
X62148344Y-78825197D01*
G37*
G36*
X61006848Y-78830000D02*
G01*
X61567691Y-78830000D01*
X61567691Y-78940397D01*
X61338164Y-78940397D01*
X61338164Y-79593991D01*
X61551998Y-79478709D01*
X61595718Y-79580314D01*
X61311541Y-79728813D01*
X61206334Y-79728813D01*
X61206334Y-78940397D01*
X61006848Y-78940397D01*
X61006848Y-78830000D01*
G37*
G36*
X60610591Y-78825197D02*
G01*
X60671747Y-78845265D01*
X60708645Y-78866266D01*
X60742023Y-78893760D01*
X60772192Y-78928368D01*
X60796855Y-78967335D01*
X60818365Y-79014530D01*
X60836367Y-79071250D01*
X60852839Y-79162345D01*
X60858898Y-79277086D01*
X60853477Y-79377145D01*
X60838076Y-79464481D01*
X60811438Y-79544817D01*
X60775917Y-79609806D01*
X60745770Y-79647399D01*
X60711385Y-79678452D01*
X60672419Y-79703473D01*
X60629821Y-79721533D01*
X60581898Y-79732730D01*
X60527644Y-79736629D01*
X60458316Y-79729693D01*
X60397157Y-79709579D01*
X60360288Y-79688587D01*
X60326931Y-79661000D01*
X60296773Y-79626170D01*
X60272058Y-79586970D01*
X60250530Y-79539642D01*
X60232537Y-79482922D01*
X60231773Y-79478709D01*
X60358200Y-79478709D01*
X60384151Y-79541906D01*
X60401568Y-79568752D01*
X60421703Y-79591182D01*
X60445089Y-79609627D01*
X60471590Y-79623483D01*
X60500773Y-79632039D01*
X60534422Y-79635024D01*
X60579023Y-79629318D01*
X60618807Y-79612493D01*
X60653243Y-79585163D01*
X60683410Y-79545326D01*
X60706274Y-79497194D01*
X60724381Y-79434806D01*
X60734855Y-79366360D01*
X60738670Y-79282398D01*
X60738364Y-79240144D01*
X60735983Y-79199295D01*
X60358200Y-79478709D01*
X60231773Y-79478709D01*
X60216022Y-79391871D01*
X60209945Y-79277086D01*
X60210102Y-79274155D01*
X60330173Y-79274155D01*
X60331883Y-79320439D01*
X60335669Y-79365380D01*
X60713452Y-79084012D01*
X60687501Y-79017822D01*
X60669920Y-78989320D01*
X60649582Y-78965737D01*
X60625801Y-78946393D01*
X60599024Y-78931910D01*
X60569323Y-78923010D01*
X60534422Y-78919881D01*
X60489880Y-78925614D01*
X60450097Y-78942534D01*
X60415660Y-78970001D01*
X60385556Y-79009823D01*
X60362666Y-79057960D01*
X60344523Y-79120710D01*
X60334003Y-79189652D01*
X60330173Y-79274155D01*
X60210102Y-79274155D01*
X60215292Y-79177105D01*
X60230461Y-79090057D01*
X60256916Y-79010071D01*
X60292621Y-78945099D01*
X60322935Y-78907473D01*
X60357327Y-78876423D01*
X60396119Y-78851432D01*
X60438490Y-78833406D01*
X60486513Y-78822193D01*
X60541260Y-78818276D01*
X60610591Y-78825197D01*
G37*
D11*
G36*
X72871995Y-50978684D02*
G01*
X72864564Y-51109334D01*
X72842686Y-51232697D01*
X72803844Y-51348295D01*
X72748042Y-51446531D01*
X72673507Y-51529112D01*
X72579148Y-51593443D01*
X72508186Y-51622906D01*
X72425030Y-51641547D01*
X72327334Y-51648154D01*
X72219551Y-51638021D01*
X72111423Y-51607121D01*
X72010789Y-51555224D01*
X71920181Y-51479993D01*
X71845292Y-51384465D01*
X71783283Y-51260052D01*
X71755182Y-51169335D01*
X71737255Y-51063568D01*
X71731177Y-50945833D01*
X71938011Y-50945833D01*
X71949891Y-51087046D01*
X71982154Y-51195544D01*
X72031678Y-51278492D01*
X72082580Y-51328111D01*
X72145064Y-51364257D01*
X72221582Y-51387152D01*
X72315610Y-51395362D01*
X72424397Y-51381892D01*
X72509950Y-51344163D01*
X72577805Y-51282644D01*
X72626157Y-51202610D01*
X72657374Y-51099710D01*
X72668785Y-50967693D01*
X72668785Y-50719054D01*
X71938011Y-50719054D01*
X71938011Y-50945833D01*
X71731177Y-50945833D01*
X71730893Y-50940338D01*
X71730893Y-50719054D01*
X71090000Y-50719054D01*
X71090000Y-50475910D01*
X72871995Y-50475910D01*
X72871995Y-50978684D01*
G37*
G36*
X71925075Y-51935068D02*
G01*
X72061598Y-51968478D01*
X72185641Y-52024259D01*
X72288621Y-52098293D01*
X72372782Y-52191751D01*
X72436388Y-52304556D01*
X72475360Y-52431756D01*
X72489023Y-52580551D01*
X72477102Y-52723165D01*
X72443227Y-52844944D01*
X72386435Y-52953447D01*
X72309138Y-53043025D01*
X72212090Y-53113673D01*
X72089563Y-53167344D01*
X71952641Y-53199107D01*
X71788778Y-53210453D01*
X71633027Y-53198825D01*
X71495321Y-53165390D01*
X71370124Y-53109610D01*
X71266831Y-53035575D01*
X71182776Y-52942107D01*
X71119187Y-52829190D01*
X71080218Y-52702096D01*
X71067808Y-52566995D01*
X71267808Y-52566995D01*
X71278773Y-52668209D01*
X71309452Y-52749323D01*
X71358317Y-52818476D01*
X71420826Y-52873642D01*
X71495068Y-52915164D01*
X71582759Y-52944717D01*
X71676635Y-52961554D01*
X71777543Y-52967309D01*
X71900116Y-52959824D01*
X71999438Y-52939221D01*
X72088448Y-52904321D01*
X72157951Y-52859354D01*
X72213771Y-52801711D01*
X72253695Y-52732958D01*
X72277543Y-52655448D01*
X72285812Y-52566995D01*
X72274814Y-52465682D01*
X72244047Y-52384546D01*
X72195255Y-52315407D01*
X72132672Y-52260226D01*
X72058533Y-52218710D01*
X71970861Y-52189152D01*
X71877174Y-52172386D01*
X71777543Y-52166681D01*
X71654754Y-52174121D01*
X71554672Y-52194647D01*
X71465134Y-52229580D01*
X71395547Y-52274515D01*
X71339772Y-52332128D01*
X71299926Y-52400300D01*
X71276128Y-52477363D01*
X71267808Y-52566995D01*
X71067808Y-52566995D01*
X71066552Y-52553318D01*
X71078470Y-52410688D01*
X71112348Y-52288803D01*
X71169250Y-52180425D01*
X71247048Y-52090722D01*
X71344671Y-52020100D01*
X71467233Y-51966402D01*
X71604425Y-51934754D01*
X71769605Y-51923415D01*
X71925075Y-51935068D01*
G37*
G36*
X72465575Y-54824654D02*
G01*
X71090000Y-54625230D01*
X71090000Y-54336901D01*
X71664703Y-54138820D01*
X71804288Y-54099253D01*
X71656521Y-54054190D01*
X71090000Y-53864291D01*
X71090000Y-53584145D01*
X72465575Y-53386064D01*
X72465575Y-53618339D01*
X71530614Y-53733133D01*
X71322641Y-53757679D01*
X71504602Y-53816420D01*
X72121681Y-54015844D01*
X72121681Y-54186692D01*
X71512784Y-54401137D01*
X71330823Y-54462686D01*
X71523775Y-54483203D01*
X72465575Y-54589692D01*
X72465575Y-54824654D01*
G37*
G36*
X71917211Y-55043693D02*
G01*
X72049263Y-55074759D01*
X72171704Y-55126506D01*
X72276287Y-55196270D01*
X72363766Y-55284999D01*
X72431503Y-55392397D01*
X72462959Y-55471670D01*
X72482330Y-55559066D01*
X72489023Y-55656057D01*
X72477170Y-55794246D01*
X72443715Y-55910191D01*
X72388600Y-56012915D01*
X72315610Y-56096671D01*
X72225075Y-56162545D01*
X72114110Y-56211465D01*
X71991297Y-56240282D01*
X71848984Y-56250422D01*
X71763988Y-56249078D01*
X71699630Y-56244926D01*
X71699630Y-56003126D01*
X71883300Y-56003126D01*
X71972993Y-56000606D01*
X72051584Y-55985418D01*
X72123302Y-55957146D01*
X72182742Y-55917763D01*
X72231431Y-55866653D01*
X72268593Y-55803579D01*
X72291404Y-55731682D01*
X72299490Y-55645188D01*
X72291745Y-55569885D01*
X72269204Y-55503039D01*
X72232926Y-55443430D01*
X72184085Y-55392397D01*
X72124716Y-55351035D01*
X72052194Y-55317292D01*
X71972803Y-55294320D01*
X71883300Y-55281755D01*
X71883300Y-56003126D01*
X71699630Y-56003126D01*
X71699630Y-55281755D01*
X71594972Y-55290014D01*
X71508321Y-55313136D01*
X71436368Y-55349595D01*
X71376618Y-55399235D01*
X71329466Y-55460851D01*
X71294404Y-55535892D01*
X71271962Y-55627135D01*
X71263900Y-55738122D01*
X71268907Y-55858290D01*
X71282707Y-55974427D01*
X71302369Y-56081650D01*
X71326427Y-56176660D01*
X71131032Y-56176660D01*
X71105672Y-56076262D01*
X71084504Y-55957330D01*
X71071106Y-55833786D01*
X71066552Y-55703928D01*
X71079337Y-55534900D01*
X71114424Y-55400579D01*
X71173987Y-55283624D01*
X71253276Y-55192240D01*
X71352832Y-55122487D01*
X71476147Y-55072072D01*
X71613213Y-55043341D01*
X71775101Y-55033115D01*
X71917211Y-55043693D01*
G37*
G36*
X72465575Y-56685662D02*
G01*
X72465575Y-56902916D01*
X72212662Y-56909633D01*
X72305654Y-56995231D01*
X72374739Y-57074910D01*
X72423688Y-57149480D01*
X72460610Y-57230221D01*
X72482007Y-57309318D01*
X72489023Y-57387861D01*
X72479515Y-57492673D01*
X72452797Y-57579246D01*
X72410199Y-57651192D01*
X72351147Y-57710994D01*
X72280471Y-57755465D01*
X72191583Y-57788428D01*
X72080381Y-57808415D01*
X71941919Y-57812721D01*
X71941919Y-57572264D01*
X72061562Y-57566985D01*
X72145486Y-57548148D01*
X72202770Y-57519630D01*
X72247496Y-57476447D01*
X72274361Y-57422312D01*
X72283859Y-57353667D01*
X72279661Y-57306166D01*
X72266762Y-57257435D01*
X72245397Y-57209612D01*
X72212295Y-57157662D01*
X72116308Y-57048974D01*
X71974769Y-56926120D01*
X71090000Y-56926120D01*
X71090000Y-56685662D01*
X72465575Y-56685662D01*
G37*
G36*
X71090000Y-60957958D02*
G01*
X71090000Y-60720188D01*
X72199839Y-60684651D01*
X72627386Y-60669630D01*
X72378747Y-60586343D01*
X71668367Y-60322683D01*
X71668367Y-60154644D01*
X72351514Y-59903196D01*
X72627386Y-59819909D01*
X72180666Y-59814413D01*
X71090000Y-59783028D01*
X71090000Y-59553440D01*
X72871995Y-59640879D01*
X72871995Y-59929207D01*
X72199839Y-60169665D01*
X71973060Y-60247456D01*
X72199839Y-60322683D01*
X72871995Y-60575352D01*
X72871995Y-60871863D01*
X71090000Y-60957958D01*
G37*
G36*
X71925075Y-61161586D02*
G01*
X72061598Y-61194996D01*
X72185641Y-61250777D01*
X72288621Y-61324811D01*
X72372782Y-61418268D01*
X72436388Y-61531074D01*
X72475360Y-61658274D01*
X72489023Y-61807069D01*
X72477102Y-61949683D01*
X72443227Y-62071461D01*
X72386435Y-62179965D01*
X72309138Y-62269542D01*
X72212090Y-62340190D01*
X72089563Y-62393862D01*
X71952641Y-62425624D01*
X71788778Y-62436971D01*
X71633027Y-62425343D01*
X71495321Y-62391908D01*
X71370124Y-62336127D01*
X71266831Y-62262093D01*
X71182776Y-62168625D01*
X71119187Y-62055708D01*
X71080218Y-61928614D01*
X71067808Y-61793513D01*
X71267808Y-61793513D01*
X71278773Y-61894727D01*
X71309452Y-61975840D01*
X71358317Y-62044994D01*
X71420826Y-62100160D01*
X71495068Y-62141682D01*
X71582759Y-62171235D01*
X71676635Y-62188072D01*
X71777543Y-62193827D01*
X71900116Y-62186341D01*
X71999438Y-62165739D01*
X72088448Y-62130838D01*
X72157951Y-62085872D01*
X72213771Y-62028229D01*
X72253695Y-61959476D01*
X72277543Y-61881966D01*
X72285812Y-61793513D01*
X72274814Y-61692200D01*
X72244047Y-61611064D01*
X72195255Y-61541924D01*
X72132672Y-61486744D01*
X72058533Y-61445227D01*
X71970861Y-61415669D01*
X71877174Y-61398903D01*
X71777543Y-61393199D01*
X71654754Y-61400639D01*
X71554672Y-61421165D01*
X71465134Y-61456097D01*
X71395547Y-61501032D01*
X71339772Y-61558646D01*
X71299926Y-61626817D01*
X71276128Y-61703881D01*
X71267808Y-61793513D01*
X71067808Y-61793513D01*
X71066552Y-61779836D01*
X71078470Y-61637205D01*
X71112348Y-61515321D01*
X71169250Y-61406943D01*
X71247048Y-61317240D01*
X71344671Y-61246617D01*
X71467233Y-61192920D01*
X71604425Y-61161272D01*
X71769605Y-61149933D01*
X71925075Y-61161586D01*
G37*
G36*
X71918400Y-62723451D02*
G01*
X72060498Y-62758761D01*
X72187677Y-62817649D01*
X72290331Y-62894682D01*
X72372526Y-62991310D01*
X72432602Y-63106441D01*
X72468655Y-63234894D01*
X72481207Y-63381824D01*
X72473025Y-63510907D01*
X72447013Y-63635837D01*
X73020495Y-63635837D01*
X73020495Y-63874951D01*
X71090000Y-63874951D01*
X71090000Y-63661849D01*
X71351095Y-63653667D01*
X71259109Y-63582073D01*
X71188504Y-63510199D01*
X71136284Y-63437756D01*
X71097452Y-63357971D01*
X71074336Y-63274637D01*
X71070766Y-63234180D01*
X71269762Y-63234180D01*
X71277729Y-63291883D01*
X71303293Y-63354719D01*
X71350484Y-63424811D01*
X71444314Y-63522076D01*
X71589965Y-63635837D01*
X72227805Y-63635837D01*
X72251602Y-63574918D01*
X72269448Y-63506022D01*
X72283859Y-63365338D01*
X72275317Y-63270097D01*
X72251096Y-63189668D01*
X72212169Y-63121205D01*
X72157951Y-63062721D01*
X72093030Y-63018800D01*
X72008900Y-62984869D01*
X71901010Y-62962418D01*
X71763866Y-62954155D01*
X71597936Y-62964008D01*
X71477557Y-62989807D01*
X71392250Y-63027184D01*
X71323012Y-63084066D01*
X71283338Y-63151787D01*
X71269762Y-63234180D01*
X71070766Y-63234180D01*
X71066552Y-63186430D01*
X71079288Y-63074140D01*
X71115767Y-62979434D01*
X71174722Y-62897888D01*
X71254619Y-62830446D01*
X71350801Y-62779446D01*
X71470163Y-62740931D01*
X71599879Y-62718726D01*
X71749211Y-62710889D01*
X71918400Y-62723451D01*
G37*
G36*
X71090000Y-65420886D02*
G01*
X71090000Y-65207784D01*
X71311894Y-65199602D01*
X71194047Y-65082732D01*
X71150829Y-65026426D01*
X71118332Y-64972700D01*
X71093788Y-64917350D01*
X71078154Y-64862791D01*
X71066552Y-64746043D01*
X71075321Y-64640981D01*
X71099798Y-64554950D01*
X71138385Y-64484288D01*
X71191116Y-64426329D01*
X71255508Y-64382189D01*
X71337032Y-64348485D01*
X71439515Y-64326424D01*
X71567616Y-64318374D01*
X72465575Y-64318374D01*
X72465575Y-64556144D01*
X71586179Y-64556144D01*
X71459371Y-64568271D01*
X71373175Y-64599741D01*
X71316305Y-64646459D01*
X71282074Y-64709285D01*
X71269762Y-64793792D01*
X71282707Y-64879155D01*
X71299829Y-64920520D01*
X71327892Y-64966594D01*
X71414965Y-65065024D01*
X71553328Y-65183237D01*
X72465575Y-65183237D01*
X72465575Y-65420886D01*
X71090000Y-65420886D01*
G37*
G36*
X72825101Y-66323363D02*
G01*
X72825101Y-65917554D01*
X73020495Y-65917554D01*
X73020495Y-66563820D01*
X71287348Y-66563820D01*
X71287348Y-66972316D01*
X71090000Y-66972316D01*
X71090000Y-65872491D01*
X71287348Y-65872491D01*
X71287348Y-66323363D01*
X72825101Y-66323363D01*
G37*
G36*
X71917211Y-67345716D02*
G01*
X72049263Y-67376782D01*
X72171704Y-67428530D01*
X72276287Y-67498293D01*
X72363766Y-67587023D01*
X72431503Y-67694420D01*
X72462959Y-67773694D01*
X72482330Y-67861089D01*
X72489023Y-67958080D01*
X72477170Y-68096269D01*
X72443715Y-68212215D01*
X72388600Y-68314938D01*
X72315610Y-68398695D01*
X72225075Y-68464569D01*
X72114110Y-68513489D01*
X71991297Y-68542305D01*
X71848984Y-68552445D01*
X71763988Y-68551102D01*
X71699630Y-68546950D01*
X71699630Y-68305150D01*
X71883300Y-68305150D01*
X71972993Y-68302630D01*
X72051584Y-68287442D01*
X72123302Y-68259170D01*
X72182742Y-68219787D01*
X72231431Y-68168677D01*
X72268593Y-68105603D01*
X72291404Y-68033705D01*
X72299490Y-67947212D01*
X72291745Y-67871909D01*
X72269204Y-67805062D01*
X72232926Y-67745453D01*
X72184085Y-67694420D01*
X72124716Y-67653058D01*
X72052194Y-67619316D01*
X71972803Y-67596344D01*
X71883300Y-67583778D01*
X71883300Y-68305150D01*
X71699630Y-68305150D01*
X71699630Y-67583778D01*
X71594972Y-67592038D01*
X71508321Y-67615159D01*
X71436368Y-67651619D01*
X71376618Y-67701259D01*
X71329466Y-67762875D01*
X71294404Y-67837916D01*
X71271962Y-67929159D01*
X71263900Y-68040146D01*
X71268907Y-68160314D01*
X71282707Y-68276451D01*
X71302369Y-68383674D01*
X71326427Y-68478684D01*
X71131032Y-68478684D01*
X71105672Y-68378285D01*
X71084504Y-68259354D01*
X71071106Y-68135810D01*
X71066552Y-68005952D01*
X71079337Y-67836924D01*
X71114424Y-67702602D01*
X71173987Y-67585647D01*
X71253276Y-67494263D01*
X71352832Y-67424510D01*
X71476147Y-67374096D01*
X71613213Y-67345364D01*
X71775101Y-67335139D01*
X71917211Y-67345716D01*
G37*
G36*
X72465575Y-70340914D02*
G01*
X72465575Y-70611535D01*
X71555771Y-70947613D01*
X71333876Y-71020031D01*
X71561266Y-71095136D01*
X72465575Y-71428527D01*
X72465575Y-71689378D01*
X71090000Y-71151189D01*
X71090000Y-70877882D01*
X72465575Y-70340914D01*
G37*
G36*
X71090000Y-73165704D02*
G01*
X71090000Y-71989431D01*
X71302979Y-71989431D01*
X71763133Y-72451172D01*
X71957550Y-72635575D01*
X72039323Y-72701140D01*
X72107393Y-72746217D01*
X72175269Y-72780229D01*
X72235376Y-72799584D01*
X72365436Y-72813262D01*
X72429902Y-72808745D01*
X72490488Y-72795432D01*
X72546867Y-72772713D01*
X72595146Y-72740844D01*
X72635087Y-72699062D01*
X72666221Y-72645223D01*
X72685316Y-72582848D01*
X72692233Y-72504417D01*
X72679495Y-72395286D01*
X72642163Y-72298154D01*
X72585192Y-72209567D01*
X72512470Y-72127428D01*
X72669030Y-71996270D01*
X72764711Y-72104987D01*
X72839267Y-72229155D01*
X72874030Y-72319180D01*
X72895695Y-72420763D01*
X72903258Y-72535924D01*
X72894047Y-72651252D01*
X72867599Y-72752445D01*
X72823791Y-72844103D01*
X72765017Y-72921095D01*
X72691127Y-72983673D01*
X72600764Y-73031127D01*
X72499454Y-73059973D01*
X72381678Y-73070083D01*
X72281436Y-73063053D01*
X72191413Y-73042728D01*
X72105263Y-73008976D01*
X72016901Y-72960052D01*
X71930730Y-72899359D01*
X71836772Y-72820711D01*
X71632829Y-72621898D01*
X71316657Y-72298154D01*
X71316657Y-73165704D01*
X71090000Y-73165704D01*
G37*
D12*
X59404524Y-69594819D02*
X59404524Y-68594819D01*
X59404524Y-68594819D02*
X59785476Y-68594819D01*
X59785476Y-68594819D02*
X59880714Y-68642438D01*
X59880714Y-68642438D02*
X59928333Y-68690057D01*
X59928333Y-68690057D02*
X59975952Y-68785295D01*
X59975952Y-68785295D02*
X59975952Y-68928152D01*
X59975952Y-68928152D02*
X59928333Y-69023390D01*
X59928333Y-69023390D02*
X59880714Y-69071009D01*
X59880714Y-69071009D02*
X59785476Y-69118628D01*
X59785476Y-69118628D02*
X59404524Y-69118628D01*
X60309286Y-68594819D02*
X60547381Y-69594819D01*
X60547381Y-69594819D02*
X60737857Y-68880533D01*
X60737857Y-68880533D02*
X60928333Y-69594819D01*
X60928333Y-69594819D02*
X61166429Y-68594819D01*
X62118809Y-69594819D02*
X61785476Y-69118628D01*
X61547381Y-69594819D02*
X61547381Y-68594819D01*
X61547381Y-68594819D02*
X61928333Y-68594819D01*
X61928333Y-68594819D02*
X62023571Y-68642438D01*
X62023571Y-68642438D02*
X62071190Y-68690057D01*
X62071190Y-68690057D02*
X62118809Y-68785295D01*
X62118809Y-68785295D02*
X62118809Y-68928152D01*
X62118809Y-68928152D02*
X62071190Y-69023390D01*
X62071190Y-69023390D02*
X62023571Y-69071009D01*
X62023571Y-69071009D02*
X61928333Y-69118628D01*
X61928333Y-69118628D02*
X61547381Y-69118628D01*
X62309286Y-69690057D02*
X63071190Y-69690057D01*
X63261667Y-68690057D02*
X63309286Y-68642438D01*
X63309286Y-68642438D02*
X63404524Y-68594819D01*
X63404524Y-68594819D02*
X63642619Y-68594819D01*
X63642619Y-68594819D02*
X63737857Y-68642438D01*
X63737857Y-68642438D02*
X63785476Y-68690057D01*
X63785476Y-68690057D02*
X63833095Y-68785295D01*
X63833095Y-68785295D02*
X63833095Y-68880533D01*
X63833095Y-68880533D02*
X63785476Y-69023390D01*
X63785476Y-69023390D02*
X63214048Y-69594819D01*
X63214048Y-69594819D02*
X63833095Y-69594819D01*
X59379524Y-58624819D02*
X59379524Y-57624819D01*
X59379524Y-57624819D02*
X59760476Y-57624819D01*
X59760476Y-57624819D02*
X59855714Y-57672438D01*
X59855714Y-57672438D02*
X59903333Y-57720057D01*
X59903333Y-57720057D02*
X59950952Y-57815295D01*
X59950952Y-57815295D02*
X59950952Y-57958152D01*
X59950952Y-57958152D02*
X59903333Y-58053390D01*
X59903333Y-58053390D02*
X59855714Y-58101009D01*
X59855714Y-58101009D02*
X59760476Y-58148628D01*
X59760476Y-58148628D02*
X59379524Y-58148628D01*
X60284286Y-57624819D02*
X60522381Y-58624819D01*
X60522381Y-58624819D02*
X60712857Y-57910533D01*
X60712857Y-57910533D02*
X60903333Y-58624819D01*
X60903333Y-58624819D02*
X61141429Y-57624819D01*
X62093809Y-58624819D02*
X61760476Y-58148628D01*
X61522381Y-58624819D02*
X61522381Y-57624819D01*
X61522381Y-57624819D02*
X61903333Y-57624819D01*
X61903333Y-57624819D02*
X61998571Y-57672438D01*
X61998571Y-57672438D02*
X62046190Y-57720057D01*
X62046190Y-57720057D02*
X62093809Y-57815295D01*
X62093809Y-57815295D02*
X62093809Y-57958152D01*
X62093809Y-57958152D02*
X62046190Y-58053390D01*
X62046190Y-58053390D02*
X61998571Y-58101009D01*
X61998571Y-58101009D02*
X61903333Y-58148628D01*
X61903333Y-58148628D02*
X61522381Y-58148628D01*
X62284286Y-58720057D02*
X63046190Y-58720057D01*
X63808095Y-58624819D02*
X63236667Y-58624819D01*
X63522381Y-58624819D02*
X63522381Y-57624819D01*
X63522381Y-57624819D02*
X63427143Y-57767676D01*
X63427143Y-57767676D02*
X63331905Y-57862914D01*
X63331905Y-57862914D02*
X63236667Y-57910533D01*
X79016904Y-41217438D02*
X78921666Y-41169819D01*
X78921666Y-41169819D02*
X78778809Y-41169819D01*
X78778809Y-41169819D02*
X78635952Y-41217438D01*
X78635952Y-41217438D02*
X78540714Y-41312676D01*
X78540714Y-41312676D02*
X78493095Y-41407914D01*
X78493095Y-41407914D02*
X78445476Y-41598390D01*
X78445476Y-41598390D02*
X78445476Y-41741247D01*
X78445476Y-41741247D02*
X78493095Y-41931723D01*
X78493095Y-41931723D02*
X78540714Y-42026961D01*
X78540714Y-42026961D02*
X78635952Y-42122200D01*
X78635952Y-42122200D02*
X78778809Y-42169819D01*
X78778809Y-42169819D02*
X78874047Y-42169819D01*
X78874047Y-42169819D02*
X79016904Y-42122200D01*
X79016904Y-42122200D02*
X79064523Y-42074580D01*
X79064523Y-42074580D02*
X79064523Y-41741247D01*
X79064523Y-41741247D02*
X78874047Y-41741247D01*
X79493095Y-42169819D02*
X79493095Y-41169819D01*
X79493095Y-41169819D02*
X80064523Y-42169819D01*
X80064523Y-42169819D02*
X80064523Y-41169819D01*
X80540714Y-42169819D02*
X80540714Y-41169819D01*
X80540714Y-41169819D02*
X80778809Y-41169819D01*
X80778809Y-41169819D02*
X80921666Y-41217438D01*
X80921666Y-41217438D02*
X81016904Y-41312676D01*
X81016904Y-41312676D02*
X81064523Y-41407914D01*
X81064523Y-41407914D02*
X81112142Y-41598390D01*
X81112142Y-41598390D02*
X81112142Y-41741247D01*
X81112142Y-41741247D02*
X81064523Y-41931723D01*
X81064523Y-41931723D02*
X81016904Y-42026961D01*
X81016904Y-42026961D02*
X80921666Y-42122200D01*
X80921666Y-42122200D02*
X80778809Y-42169819D01*
X80778809Y-42169819D02*
X80540714Y-42169819D01*
X81302619Y-42265057D02*
X82064523Y-42265057D01*
X82683571Y-42122200D02*
X82588333Y-42169819D01*
X82588333Y-42169819D02*
X82397857Y-42169819D01*
X82397857Y-42169819D02*
X82302619Y-42122200D01*
X82302619Y-42122200D02*
X82255000Y-42026961D01*
X82255000Y-42026961D02*
X82255000Y-41646009D01*
X82255000Y-41646009D02*
X82302619Y-41550771D01*
X82302619Y-41550771D02*
X82397857Y-41503152D01*
X82397857Y-41503152D02*
X82588333Y-41503152D01*
X82588333Y-41503152D02*
X82683571Y-41550771D01*
X82683571Y-41550771D02*
X82731190Y-41646009D01*
X82731190Y-41646009D02*
X82731190Y-41741247D01*
X82731190Y-41741247D02*
X82255000Y-41836485D01*
X83064524Y-42169819D02*
X83588333Y-41503152D01*
X83064524Y-41503152D02*
X83588333Y-42169819D01*
X83826429Y-41503152D02*
X84207381Y-41503152D01*
X83969286Y-41169819D02*
X83969286Y-42026961D01*
X83969286Y-42026961D02*
X84016905Y-42122200D01*
X84016905Y-42122200D02*
X84112143Y-42169819D01*
X84112143Y-42169819D02*
X84207381Y-42169819D01*
X85064524Y-42169819D02*
X84493096Y-42169819D01*
X84778810Y-42169819D02*
X84778810Y-41169819D01*
X84778810Y-41169819D02*
X84683572Y-41312676D01*
X84683572Y-41312676D02*
X84588334Y-41407914D01*
X84588334Y-41407914D02*
X84493096Y-41455533D01*
X80520952Y-71622438D02*
X80425714Y-71574819D01*
X80425714Y-71574819D02*
X80282857Y-71574819D01*
X80282857Y-71574819D02*
X80140000Y-71622438D01*
X80140000Y-71622438D02*
X80044762Y-71717676D01*
X80044762Y-71717676D02*
X79997143Y-71812914D01*
X79997143Y-71812914D02*
X79949524Y-72003390D01*
X79949524Y-72003390D02*
X79949524Y-72146247D01*
X79949524Y-72146247D02*
X79997143Y-72336723D01*
X79997143Y-72336723D02*
X80044762Y-72431961D01*
X80044762Y-72431961D02*
X80140000Y-72527200D01*
X80140000Y-72527200D02*
X80282857Y-72574819D01*
X80282857Y-72574819D02*
X80378095Y-72574819D01*
X80378095Y-72574819D02*
X80520952Y-72527200D01*
X80520952Y-72527200D02*
X80568571Y-72479580D01*
X80568571Y-72479580D02*
X80568571Y-72146247D01*
X80568571Y-72146247D02*
X80378095Y-72146247D01*
X80997143Y-72574819D02*
X80997143Y-71574819D01*
X80997143Y-71574819D02*
X81568571Y-72574819D01*
X81568571Y-72574819D02*
X81568571Y-71574819D01*
X82044762Y-72574819D02*
X82044762Y-71574819D01*
X82044762Y-71574819D02*
X82282857Y-71574819D01*
X82282857Y-71574819D02*
X82425714Y-71622438D01*
X82425714Y-71622438D02*
X82520952Y-71717676D01*
X82520952Y-71717676D02*
X82568571Y-71812914D01*
X82568571Y-71812914D02*
X82616190Y-72003390D01*
X82616190Y-72003390D02*
X82616190Y-72146247D01*
X82616190Y-72146247D02*
X82568571Y-72336723D01*
X82568571Y-72336723D02*
X82520952Y-72431961D01*
X82520952Y-72431961D02*
X82425714Y-72527200D01*
X82425714Y-72527200D02*
X82282857Y-72574819D01*
X82282857Y-72574819D02*
X82044762Y-72574819D01*
X82806667Y-72670057D02*
X83568571Y-72670057D01*
X83711429Y-71574819D02*
X84330476Y-71574819D01*
X84330476Y-71574819D02*
X83997143Y-71955771D01*
X83997143Y-71955771D02*
X84140000Y-71955771D01*
X84140000Y-71955771D02*
X84235238Y-72003390D01*
X84235238Y-72003390D02*
X84282857Y-72051009D01*
X84282857Y-72051009D02*
X84330476Y-72146247D01*
X84330476Y-72146247D02*
X84330476Y-72384342D01*
X84330476Y-72384342D02*
X84282857Y-72479580D01*
X84282857Y-72479580D02*
X84235238Y-72527200D01*
X84235238Y-72527200D02*
X84140000Y-72574819D01*
X84140000Y-72574819D02*
X83854286Y-72574819D01*
X83854286Y-72574819D02*
X83759048Y-72527200D01*
X83759048Y-72527200D02*
X83711429Y-72479580D01*
X80220952Y-62822438D02*
X80125714Y-62774819D01*
X80125714Y-62774819D02*
X79982857Y-62774819D01*
X79982857Y-62774819D02*
X79840000Y-62822438D01*
X79840000Y-62822438D02*
X79744762Y-62917676D01*
X79744762Y-62917676D02*
X79697143Y-63012914D01*
X79697143Y-63012914D02*
X79649524Y-63203390D01*
X79649524Y-63203390D02*
X79649524Y-63346247D01*
X79649524Y-63346247D02*
X79697143Y-63536723D01*
X79697143Y-63536723D02*
X79744762Y-63631961D01*
X79744762Y-63631961D02*
X79840000Y-63727200D01*
X79840000Y-63727200D02*
X79982857Y-63774819D01*
X79982857Y-63774819D02*
X80078095Y-63774819D01*
X80078095Y-63774819D02*
X80220952Y-63727200D01*
X80220952Y-63727200D02*
X80268571Y-63679580D01*
X80268571Y-63679580D02*
X80268571Y-63346247D01*
X80268571Y-63346247D02*
X80078095Y-63346247D01*
X80697143Y-63774819D02*
X80697143Y-62774819D01*
X80697143Y-62774819D02*
X81268571Y-63774819D01*
X81268571Y-63774819D02*
X81268571Y-62774819D01*
X81744762Y-63774819D02*
X81744762Y-62774819D01*
X81744762Y-62774819D02*
X81982857Y-62774819D01*
X81982857Y-62774819D02*
X82125714Y-62822438D01*
X82125714Y-62822438D02*
X82220952Y-62917676D01*
X82220952Y-62917676D02*
X82268571Y-63012914D01*
X82268571Y-63012914D02*
X82316190Y-63203390D01*
X82316190Y-63203390D02*
X82316190Y-63346247D01*
X82316190Y-63346247D02*
X82268571Y-63536723D01*
X82268571Y-63536723D02*
X82220952Y-63631961D01*
X82220952Y-63631961D02*
X82125714Y-63727200D01*
X82125714Y-63727200D02*
X81982857Y-63774819D01*
X81982857Y-63774819D02*
X81744762Y-63774819D01*
X82506667Y-63870057D02*
X83268571Y-63870057D01*
X83459048Y-62870057D02*
X83506667Y-62822438D01*
X83506667Y-62822438D02*
X83601905Y-62774819D01*
X83601905Y-62774819D02*
X83840000Y-62774819D01*
X83840000Y-62774819D02*
X83935238Y-62822438D01*
X83935238Y-62822438D02*
X83982857Y-62870057D01*
X83982857Y-62870057D02*
X84030476Y-62965295D01*
X84030476Y-62965295D02*
X84030476Y-63060533D01*
X84030476Y-63060533D02*
X83982857Y-63203390D01*
X83982857Y-63203390D02*
X83411429Y-63774819D01*
X83411429Y-63774819D02*
X84030476Y-63774819D01*
X80040952Y-53582438D02*
X79945714Y-53534819D01*
X79945714Y-53534819D02*
X79802857Y-53534819D01*
X79802857Y-53534819D02*
X79660000Y-53582438D01*
X79660000Y-53582438D02*
X79564762Y-53677676D01*
X79564762Y-53677676D02*
X79517143Y-53772914D01*
X79517143Y-53772914D02*
X79469524Y-53963390D01*
X79469524Y-53963390D02*
X79469524Y-54106247D01*
X79469524Y-54106247D02*
X79517143Y-54296723D01*
X79517143Y-54296723D02*
X79564762Y-54391961D01*
X79564762Y-54391961D02*
X79660000Y-54487200D01*
X79660000Y-54487200D02*
X79802857Y-54534819D01*
X79802857Y-54534819D02*
X79898095Y-54534819D01*
X79898095Y-54534819D02*
X80040952Y-54487200D01*
X80040952Y-54487200D02*
X80088571Y-54439580D01*
X80088571Y-54439580D02*
X80088571Y-54106247D01*
X80088571Y-54106247D02*
X79898095Y-54106247D01*
X80517143Y-54534819D02*
X80517143Y-53534819D01*
X80517143Y-53534819D02*
X81088571Y-54534819D01*
X81088571Y-54534819D02*
X81088571Y-53534819D01*
X81564762Y-54534819D02*
X81564762Y-53534819D01*
X81564762Y-53534819D02*
X81802857Y-53534819D01*
X81802857Y-53534819D02*
X81945714Y-53582438D01*
X81945714Y-53582438D02*
X82040952Y-53677676D01*
X82040952Y-53677676D02*
X82088571Y-53772914D01*
X82088571Y-53772914D02*
X82136190Y-53963390D01*
X82136190Y-53963390D02*
X82136190Y-54106247D01*
X82136190Y-54106247D02*
X82088571Y-54296723D01*
X82088571Y-54296723D02*
X82040952Y-54391961D01*
X82040952Y-54391961D02*
X81945714Y-54487200D01*
X81945714Y-54487200D02*
X81802857Y-54534819D01*
X81802857Y-54534819D02*
X81564762Y-54534819D01*
X82326667Y-54630057D02*
X83088571Y-54630057D01*
X83850476Y-54534819D02*
X83279048Y-54534819D01*
X83564762Y-54534819D02*
X83564762Y-53534819D01*
X83564762Y-53534819D02*
X83469524Y-53677676D01*
X83469524Y-53677676D02*
X83374286Y-53772914D01*
X83374286Y-53772914D02*
X83279048Y-53820533D01*
X59328332Y-41489819D02*
X58852142Y-41489819D01*
X58852142Y-41489819D02*
X58804523Y-41966009D01*
X58804523Y-41966009D02*
X58852142Y-41918390D01*
X58852142Y-41918390D02*
X58947380Y-41870771D01*
X58947380Y-41870771D02*
X59185475Y-41870771D01*
X59185475Y-41870771D02*
X59280713Y-41918390D01*
X59280713Y-41918390D02*
X59328332Y-41966009D01*
X59328332Y-41966009D02*
X59375951Y-42061247D01*
X59375951Y-42061247D02*
X59375951Y-42299342D01*
X59375951Y-42299342D02*
X59328332Y-42394580D01*
X59328332Y-42394580D02*
X59280713Y-42442200D01*
X59280713Y-42442200D02*
X59185475Y-42489819D01*
X59185475Y-42489819D02*
X58947380Y-42489819D01*
X58947380Y-42489819D02*
X58852142Y-42442200D01*
X58852142Y-42442200D02*
X58804523Y-42394580D01*
X59661666Y-41489819D02*
X59994999Y-42489819D01*
X59994999Y-42489819D02*
X60328332Y-41489819D01*
X60423571Y-42585057D02*
X61185475Y-42585057D01*
X61804523Y-42442200D02*
X61709285Y-42489819D01*
X61709285Y-42489819D02*
X61518809Y-42489819D01*
X61518809Y-42489819D02*
X61423571Y-42442200D01*
X61423571Y-42442200D02*
X61375952Y-42346961D01*
X61375952Y-42346961D02*
X61375952Y-41966009D01*
X61375952Y-41966009D02*
X61423571Y-41870771D01*
X61423571Y-41870771D02*
X61518809Y-41823152D01*
X61518809Y-41823152D02*
X61709285Y-41823152D01*
X61709285Y-41823152D02*
X61804523Y-41870771D01*
X61804523Y-41870771D02*
X61852142Y-41966009D01*
X61852142Y-41966009D02*
X61852142Y-42061247D01*
X61852142Y-42061247D02*
X61375952Y-42156485D01*
X62185476Y-42489819D02*
X62709285Y-41823152D01*
X62185476Y-41823152D02*
X62709285Y-42489819D01*
X62947381Y-41823152D02*
X63328333Y-41823152D01*
X63090238Y-41489819D02*
X63090238Y-42346961D01*
X63090238Y-42346961D02*
X63137857Y-42442200D01*
X63137857Y-42442200D02*
X63233095Y-42489819D01*
X63233095Y-42489819D02*
X63328333Y-42489819D01*
X64185476Y-42489819D02*
X63614048Y-42489819D01*
X63899762Y-42489819D02*
X63899762Y-41489819D01*
X63899762Y-41489819D02*
X63804524Y-41632676D01*
X63804524Y-41632676D02*
X63709286Y-41727914D01*
X63709286Y-41727914D02*
X63614048Y-41775533D01*
D13*
%TO.C,PWR_2*%
X60265000Y-73120000D02*
X60265000Y-73240000D01*
X60265000Y-73240000D02*
X62925000Y-73240000D01*
X61595000Y-70580000D02*
X62925000Y-70580000D01*
X62925000Y-70580000D02*
X62925000Y-71910000D01*
X62925000Y-73120000D02*
X62925000Y-73240000D01*
%TO.C,PWR_1*%
X60240000Y-62150000D02*
X60240000Y-62270000D01*
X60240000Y-62270000D02*
X62900000Y-62270000D01*
X61570000Y-59610000D02*
X62900000Y-59610000D01*
X62900000Y-59610000D02*
X62900000Y-60940000D01*
X62900000Y-62150000D02*
X62900000Y-62270000D01*
%TO.C,GND_ext1*%
X80425000Y-45695000D02*
X80425000Y-45815000D01*
X80425000Y-45815000D02*
X83085000Y-45815000D01*
X81755000Y-43155000D02*
X83085000Y-43155000D01*
X83085000Y-43155000D02*
X83085000Y-44485000D01*
X83085000Y-45695000D02*
X83085000Y-45815000D01*
%TO.C,GND_3*%
X80810000Y-76100000D02*
X80810000Y-76220000D01*
X80810000Y-76220000D02*
X83470000Y-76220000D01*
X82140000Y-73560000D02*
X83470000Y-73560000D01*
X83470000Y-73560000D02*
X83470000Y-74890000D01*
X83470000Y-76100000D02*
X83470000Y-76220000D01*
%TO.C,GND_2*%
X80510000Y-67300000D02*
X80510000Y-67420000D01*
X80510000Y-67420000D02*
X83170000Y-67420000D01*
X81840000Y-64760000D02*
X83170000Y-64760000D01*
X83170000Y-64760000D02*
X83170000Y-66090000D01*
X83170000Y-67300000D02*
X83170000Y-67420000D01*
%TO.C,GND_1*%
X80330000Y-58060000D02*
X80330000Y-58180000D01*
X80330000Y-58180000D02*
X82990000Y-58180000D01*
X81660000Y-55520000D02*
X82990000Y-55520000D01*
X82990000Y-55520000D02*
X82990000Y-56850000D01*
X82990000Y-58060000D02*
X82990000Y-58180000D01*
%TO.C,5V_ext1*%
X60165000Y-46015000D02*
X60165000Y-46135000D01*
X60165000Y-46135000D02*
X62825000Y-46135000D01*
X61495000Y-43475000D02*
X62825000Y-43475000D01*
X62825000Y-43475000D02*
X62825000Y-44805000D01*
X62825000Y-46015000D02*
X62825000Y-46135000D01*
%TD*%
M02*
